<svg width="460" height="460" viewBox="0 0 460 460" fill="none" xmlns="http://www.w3.org/2000/svg">
<g clip-path="url(#clip0_1_4)">
<path d="M27.22 337.5L21.63 326.84L46.36 313.84L51.71 324.04C54.42 329.21 53.23 333.5 49.55 335.43C48.2867 336.136 46.8228 336.396 45.3935 336.17C43.9643 335.943 42.6528 335.242 41.67 334.18C42.1052 335.699 41.9955 337.322 41.36 338.768C40.7245 340.215 39.603 341.393 38.19 342.1C34.26 344.2 29.91 342.64 27.22 337.5ZM37.49 331.08L34.93 326.19L28.27 329.68L30.89 334.68C32.15 337.09 34.06 337.89 36.15 336.8C38.24 335.71 38.76 333.49 37.49 331.08ZM47.34 325.47L44.96 320.94L38.76 324.18L41.16 328.75C42.39 331.09 44.16 331.88 46.16 330.82C48.16 329.76 48.56 327.81 47.34 325.47Z" fill="white"/>
<path d="M69.47 352.23L73.12 356.48L60.03 367.75C57.12 370.26 56.96 373.14 59.28 375.83C61.6 378.52 64.5 378.83 67.41 376.33L80.5 365.07L84.18 369.34L71.16 380.57C65.58 385.37 59.41 383.71 55.42 379.08C51.43 374.45 50.88 368.27 56.42 363.47L69.47 352.23Z" fill="white"/>
<path d="M93.38 414.37C88.71 410.92 86.92 405.81 89.99 401.52L94.82 405.09C93.61 406.98 93.92 409.09 96.01 410.6C98.1 412.11 100.22 411.97 101.41 410.36C105.01 405.51 91.26 399.87 97.31 391.75C100.31 387.7 105.4 387.68 110.03 391.11C114.66 394.54 116.03 399.19 113.34 403.46L108.34 399.79C109.34 398.24 109.01 396.21 107.1 394.79C105.38 393.41 103.42 393.31 102.1 395.14C98.77 399.64 112.1 405.65 106.29 413.56C103.68 417.06 98.49 418.15 93.38 414.37Z" fill="white"/>
<path d="M139.35 409.65L144.35 412.1L132.17 437.22L127.16 434.75L139.35 409.65Z" fill="white"/>
<path d="M190.67 427.51L183.67 454.58L178.25 453.18L170.76 431.46L165.97 450.01L160.55 448.61L167.55 421.54L172.98 422.94L180.46 444.75L185.25 426.16L190.67 427.51Z" fill="white"/>
<path d="M231.31 435.63L220.72 435.29L220.5 442.29L229.89 442.59L229.75 447.02L220.36 446.75L220.12 454.14L230.72 454.48L230.57 459.04L214.38 458.52L215.27 430.58L231.46 431.09L231.31 435.63Z" fill="#231F20"/>
<path d="M270.31 455.56C264.6 456.56 259.66 454.37 258.65 449.18L264.56 448.18C265.11 450.36 266.83 451.56 269.39 451.11C271.95 450.66 273.28 448.99 272.93 447.02C271.87 441.08 258.33 447.18 256.6 437.21C255.72 432.21 259.21 428.54 264.88 427.53C270.55 426.52 274.88 428.72 276.12 433.62L270.05 434.7C269.61 432.91 267.9 431.75 265.53 432.13C263.35 432.43 261.93 433.78 262.32 436.03C263.32 441.54 276.86 435.97 278.58 445.66C279.34 449.94 276.57 454.45 270.31 455.56Z" fill="#231F20"/>
<path d="M317.98 441.56C312.62 443.78 307.32 442.69 305.22 437.85L310.76 435.55C311.76 437.55 313.7 438.35 316.1 437.35C318.5 436.35 319.44 434.45 318.67 432.6C316.36 427.02 304.45 435.91 300.61 426.55C298.67 421.9 301.27 417.55 306.61 415.31C311.95 413.07 316.61 414.31 318.9 418.83L313.16 421.19C312.34 419.54 310.42 418.77 308.16 419.66C306.09 420.43 304.99 422.06 305.87 424.16C308.02 429.33 320.05 420.96 323.87 430.04C325.58 434.11 323.85 439.12 317.98 441.56Z" fill="#231F20"/>
<path d="M408.16 350.88C414.83 356.04 415.62 363.98 410.16 371.04L404.16 378.76L382.16 361.69L388.16 353.97C393.55 346.91 401.47 345.75 408.16 350.88ZM406.28 368.29C409.88 363.64 409.28 358.95 404.66 355.41C400.04 351.87 395.29 352.36 391.66 357.01L389.24 360.14L403.83 371.42L406.28 368.29Z" fill="#231F20"/>
<path d="M419.83 309.24L415.33 318.84L421.67 321.84L425.67 313.33L429.67 315.22L425.67 323.73L432.37 326.87L436.87 317.27L441 319.21L434.16 333.85L408.83 321.98L415.71 307.31L419.83 309.24Z" fill="#231F20"/>
<path d="M428.04 265.75L429.33 259.93L454.38 275.93L452.91 282.57L423.44 286.57L424.73 280.71L448.07 278.01L428.04 265.75Z" fill="#231F20"/>
<path d="M435.54 221.19L435.71 231.79L442.71 231.67L442.56 222.28L447 222.21L447.15 231.6L454.55 231.49L454.38 220.89L458.94 220.81L459.2 237.01L431.2 237.46L430.94 221.26L435.54 221.19Z" fill="#231F20"/>
<path d="M427.51 191.13L450.51 186.59L448.73 177.59L453.16 176.75L456.02 191.27L428.62 196.66L427.51 191.13Z" fill="#231F20"/>
<path d="M439.94 136.9C441.087 139.488 441.44 142.358 440.956 145.147C440.471 147.936 439.17 150.519 437.218 152.568C435.265 154.618 432.749 156.042 429.987 156.661C427.224 157.28 424.341 157.066 421.7 156.046C419.06 155.026 416.781 153.246 415.152 150.93C413.524 148.615 412.619 145.869 412.551 143.039C412.484 140.209 413.257 137.422 414.773 135.032C416.29 132.642 418.481 130.755 421.07 129.61C422.781 128.807 424.637 128.359 426.527 128.293C428.416 128.227 430.299 128.544 432.062 129.225C433.825 129.906 435.432 130.937 436.786 132.256C438.14 133.575 439.213 135.155 439.94 136.9ZM435.36 138.9C433.36 134.29 428.59 132.57 423.36 134.9C418.13 137.23 416.3 141.81 418.36 146.42C420.42 151.03 425.07 152.82 430.26 150.53C435.45 148.24 437.41 143.57 435.36 138.92V138.9Z" fill="#231F20"/>
<path d="M403.56 96.83L406.38 100.56L414.93 94.09L418.31 98.55L396.05 115.41L389.84 107.22C385.78 101.86 386.84 96.89 390.64 93.96C394.03 91.4 399.21 91.09 403.56 96.83ZM400.1 99.75C398.19 97.23 396.1 97.06 394.1 98.56C392.1 100.06 391.7 102.14 393.6 104.66L396.28 108.19L402.76 103.29L400.1 99.75Z" fill="#231F20"/>
<path d="M368.1 82.27L363.1 78.27L369.25 56.55L349.25 67.1L344.34 63.1L361.89 41.39L366.25 44.91L354.83 59.03L372.16 49.65L375.46 52.31L369.89 71.16L381.3 57.04L385.66 60.56L368.1 82.27Z" fill="#231F20"/>
<path d="M310.42 39.6899L319.99 44.2399L322.99 37.9199L314.49 33.9199L316.4 29.9199L324.89 33.9199L328.07 27.2399L318.49 22.6899L320.49 18.5699L335.12 25.5699L323.12 50.8299L308.49 43.8299L310.42 39.6899Z" fill="#231F20"/>
<path d="M262.3 30.27L268.42 2.98999L273.89 4.20999L282.07 25.69L286.26 6.98999L291.72 8.21999L285.6 35.5L280.16 34.27L271.97 12.75L267.76 31.5L262.3 30.27Z" fill="#231F20"/>
<path d="M239.27 27.8L218.79 28.12L218.72 23.6L226.16 23.49L225.79 0.0899963L231.38 0L231.76 23.4L239.2 23.28L239.27 27.8Z" fill="#231F20"/>
<path d="M128.56 55.5399C123.2 58.6599 117.17 58.3199 112.67 54.3199L118.24 51.0799C119.388 51.87 120.745 52.2996 122.138 52.3138C123.531 52.3281 124.897 51.9263 126.06 51.16C130.27 48.71 131.49 43.8799 128.64 38.9699C125.79 34.0599 120.98 32.7399 116.76 35.1899C115.518 35.8284 114.495 36.8237 113.824 38.048C113.152 39.2722 112.861 40.6694 112.99 42.0599L107.42 45.2999C106.15 39.3699 108.86 33.9999 114.22 30.8899C121.17 26.8899 129.41 28.8899 133.62 36.0799C134.622 37.6746 135.287 39.4573 135.575 41.3184C135.862 43.1796 135.766 45.08 135.292 46.9026C134.818 48.7253 133.977 50.4318 132.819 51.9171C131.661 53.4025 130.212 54.6354 128.56 55.5399Z" fill="white"/>
<path d="M69.16 65.1799C71.1794 63.1996 73.7408 61.8626 76.5201 61.3381C79.2995 60.8135 82.172 61.1249 84.7743 62.233C87.3766 63.341 89.5919 65.1959 91.1401 67.563C92.6882 69.9301 93.4995 72.7031 93.4715 75.5314C93.4436 78.3597 92.5775 81.1161 90.9829 83.4522C89.3883 85.7882 87.1367 87.5989 84.513 88.6552C81.8892 89.7116 79.0111 89.9661 76.2427 89.3867C73.4743 88.8072 70.9399 87.4198 68.96 85.3999C67.6086 84.0797 66.5384 82.4996 65.8138 80.7547C65.0893 79.0099 64.7254 77.1365 64.7441 75.2473C64.7628 73.3581 65.1636 71.4922 65.9226 69.762C66.6815 68.0319 67.7827 66.4732 69.16 65.1799ZM72.66 68.75C69.05 72.28 69.11 77.3099 73.07 81.3699C77.03 85.4299 82.02 85.55 85.63 82.03C89.24 78.51 89.26 73.5 85.29 69.44C81.32 65.38 76.25 65.2 72.62 68.75H72.66Z" fill="white"/>
<path d="M36.1 116.31L41.96 106.86L38.4 102.49L41.5 97.49L59.98 120.75L56.54 126.29L27.54 120.09L30.66 115.09L36.1 116.31ZM52.76 120.1L44.96 110.51L40.71 117.38L52.76 120.1Z" fill="white"/>
<path d="M38.16 167.88C36.26 173.78 31.55 177.56 25.53 177.59L27.53 171.46C28.9119 171.28 30.2088 170.693 31.2545 169.771C32.3003 168.85 33.0473 167.638 33.4 166.29C34.9 161.65 32.58 157.29 27.17 155.5C21.76 153.71 17.31 155.98 15.81 160.62C15.311 161.927 15.2148 163.353 15.5339 164.714C15.8529 166.076 16.5725 167.311 17.6 168.26L15.6 174.39C10.7 170.83 9.12001 165.03 11.02 159.13C12.2293 155.592 14.7796 152.671 18.1218 150.995C21.4641 149.319 25.3308 149.023 28.8892 150.17C32.4477 151.317 35.4133 153.816 37.1472 157.129C38.8812 160.441 39.2449 164.302 38.16 167.88Z" fill="white"/>
<path d="M12.24 220.14L13.06 208.21L1.21001 207.39L1.60001 201.8L29.45 203.75L29.06 209.34L17.61 208.54L16.79 220.48L28.24 221.27L27.85 226.85L0 224.93L0.389999 219.34L12.24 220.14Z" fill="white"/>
</g>
<defs>
<clipPath id="clip0_1_4">
<rect width="459.19" height="459.02" fill="white"/>
</clipPath>
</defs>
</svg>
