<svg width="242" height="81" viewBox="0 0 242 81" fill="none" xmlns="http://www.w3.org/2000/svg">
<path d="M21.0902 13.1442V17.8267H9.17472V13.1442H21.0902ZM0.943182 19.9453H6.75923C6.85819 21.5286 7.35298 22.7206 8.24361 23.5213C9.13423 24.322 10.4522 24.7223 12.1974 24.7223C13.6188 24.7223 14.7479 24.3894 15.5845 23.7237C16.4212 23.058 17.0239 22.0999 17.3928 20.8494C17.7616 19.59 17.946 18.0831 17.946 16.3288V14.0888C17.946 12.2805 17.7346 10.7557 17.3118 9.5142C16.898 8.26373 16.2637 7.31913 15.4091 6.6804C14.5634 6.04167 13.4794 5.7223 12.157 5.7223C10.8525 5.7223 9.81794 5.92022 9.05327 6.31605C8.28859 6.71188 7.73082 7.27864 7.37997 8.01633C7.02912 8.74503 6.81321 9.62666 6.73224 10.6612H0.916193C1.09612 8.84399 1.6179 7.20668 2.48153 5.74929C3.35417 4.28291 4.59115 3.1224 6.19247 2.26776C7.80279 1.41311 9.79096 0.985794 12.157 0.985794C14.505 0.985794 16.5426 1.52107 18.2699 2.59162C19.9972 3.66217 21.3331 5.17803 22.2777 7.1392C23.2223 9.10038 23.6946 11.4214 23.6946 14.1023V16.3423C23.6946 19.0232 23.2313 21.3397 22.3047 23.2919C21.3871 25.2351 20.0691 26.7375 18.3509 27.799C16.6326 28.8516 14.5814 29.3778 12.1974 29.3778C9.9214 29.3778 7.96922 28.982 6.34091 28.1903C4.71259 27.3897 3.43963 26.2831 2.52202 24.8707C1.6044 23.4493 1.07813 21.8075 0.943182 19.9453ZM34.7798 36.044V1.36364H40.5149V36.044H34.7798ZM34.7798 29.4048C33.1874 29.4048 31.7346 29.1484 30.4211 28.6357C29.1077 28.1139 27.9741 27.3807 27.0205 26.4361C26.0669 25.4825 25.3293 24.3535 24.8075 23.049C24.2857 21.7356 24.0248 20.2917 24.0248 18.7173C24.0248 17.125 24.2857 15.6766 24.8075 14.3722C25.3293 13.0587 26.0669 11.9297 27.0205 10.9851C27.9741 10.0315 29.1077 9.2983 30.4211 8.78551C31.7346 8.26373 33.1874 8.00284 34.7798 8.00284H35.8458V29.4048H34.7798ZM34.7798 24.9247H35.414V12.483H34.7798C34.0061 12.483 33.3179 12.6449 32.7151 12.9688C32.1124 13.2926 31.6041 13.7379 31.1903 14.3047C30.7765 14.8625 30.4616 15.5192 30.2457 16.2749C30.0388 17.0305 29.9353 17.8447 29.9353 18.7173C29.9353 19.8688 30.1242 20.9169 30.5021 21.8615C30.8799 22.7971 31.4332 23.5438 32.1619 24.1016C32.8906 24.6503 33.7632 24.9247 34.7798 24.9247ZM40.5149 29.4048H39.4488V8.00284H40.5149C42.1072 8.00284 43.5601 8.26373 44.8735 8.78551C46.187 9.2983 47.3205 10.0315 48.2741 10.9851C49.2277 11.9297 49.9654 13.0587 50.4872 14.3722C51.0089 15.6766 51.2698 17.125 51.2698 18.7173C51.2698 20.2917 51.0089 21.7356 50.4872 23.049C49.9654 24.3535 49.2277 25.4825 48.2741 26.4361C47.3205 27.3807 46.187 28.1139 44.8735 28.6357C43.5601 29.1484 42.1072 29.4048 40.5149 29.4048ZM40.5149 24.9247C41.2885 24.9247 41.9767 24.7673 42.5795 24.4524C43.1822 24.1286 43.6905 23.6832 44.1044 23.1165C44.5182 22.5497 44.833 21.893 45.049 21.1463C45.2649 20.3906 45.3728 19.581 45.3728 18.7173C45.3728 17.5568 45.1794 16.5088 44.7926 15.5732C44.4147 14.6286 43.866 13.8774 43.1463 13.3196C42.4266 12.7618 41.5494 12.483 40.5149 12.483H39.8806V24.9247H40.5149ZM61.9097 36.044V1.36364H67.6448V36.044H61.9097ZM61.9097 29.4048C60.3174 29.4048 58.8645 29.1484 57.551 28.6357C56.2376 28.1139 55.1041 27.3807 54.1505 26.4361C53.1969 25.4825 52.4592 24.3535 51.9374 23.049C51.4156 21.7356 51.1547 20.2917 51.1547 18.7173C51.1547 17.125 51.4156 15.6766 51.9374 14.3722C52.4592 13.0587 53.1969 11.9297 54.1505 10.9851C55.1041 10.0315 56.2376 9.2983 57.551 8.78551C58.8645 8.26373 60.3174 8.00284 61.9097 8.00284H62.9758V29.4048H61.9097ZM61.9097 24.9247H62.5439V12.483H61.9097C61.136 12.483 60.4478 12.6449 59.8451 12.9688C59.2423 13.2926 58.734 13.7379 58.3202 14.3047C57.9064 14.8625 57.5915 15.5192 57.3756 16.2749C57.1687 17.0305 57.0652 17.8447 57.0652 18.7173C57.0652 19.8688 57.2542 20.9169 57.632 21.8615C58.0098 22.7971 58.5631 23.5438 59.2918 24.1016C60.0205 24.6503 60.8931 24.9247 61.9097 24.9247ZM67.6448 29.4048H66.5787V8.00284H67.6448C69.2371 8.00284 70.69 8.26373 72.0035 8.78551C73.3169 9.2983 74.4504 10.0315 75.404 10.9851C76.3576 11.9297 77.0953 13.0587 77.6171 14.3722C78.1389 15.6766 78.3998 17.125 78.3998 18.7173C78.3998 20.2917 78.1389 21.7356 77.6171 23.049C77.0953 24.3535 76.3576 25.4825 75.404 26.4361C74.4504 27.3807 73.3169 28.1139 72.0035 28.6357C70.69 29.1484 69.2371 29.4048 67.6448 29.4048ZM67.6448 24.9247C68.4185 24.9247 69.1067 24.7673 69.7094 24.4524C70.3122 24.1286 70.8204 23.6832 71.2343 23.1165C71.6481 22.5497 71.963 21.893 72.1789 21.1463C72.3948 20.3906 72.5027 19.581 72.5027 18.7173C72.5027 17.5568 72.3093 16.5088 71.9225 15.5732C71.5446 14.6286 70.9959 13.8774 70.2762 13.3196C69.5565 12.7618 68.6794 12.483 67.6448 12.483H67.0106V24.9247H67.6448ZM88.5673 29.4048C86.4352 29.4048 84.6 28.973 83.0616 28.1094C81.5323 27.2367 80.3538 26.0043 79.5261 24.4119C78.6985 22.8106 78.2846 20.9169 78.2846 18.7308C78.2846 16.5987 78.6985 14.7275 79.5261 13.1172C80.3538 11.5069 81.5188 10.2519 83.0212 9.35227C84.5325 8.45265 86.3048 8.00284 88.3379 8.00284C89.7053 8.00284 90.9783 8.22325 92.1568 8.66406C93.3443 9.09588 94.3789 9.74811 95.2605 10.6207C96.1511 11.4934 96.8438 12.5909 97.3386 13.9134C97.8334 15.2268 98.0808 16.7652 98.0808 18.5284V20.1072H80.5787V16.5447H92.6696C92.6696 15.7171 92.4897 14.9839 92.1298 14.3452C91.77 13.7064 91.2707 13.2071 90.632 12.8473C90.0022 12.4785 89.269 12.294 88.4324 12.294C87.5597 12.294 86.7861 12.4964 86.1114 12.9013C85.4456 13.2971 84.9239 13.8324 84.546 14.5071C84.1682 15.1728 83.9748 15.915 83.9658 16.7337V20.1207C83.9658 21.1463 84.1547 22.0324 84.5325 22.7791C84.9194 23.5258 85.4636 24.1016 86.1653 24.5064C86.867 24.9112 87.6992 25.1136 88.6618 25.1136C89.3005 25.1136 89.8853 25.0237 90.416 24.8438C90.9468 24.6638 91.4011 24.3939 91.779 24.0341C92.1568 23.6742 92.4447 23.2334 92.6426 22.7116L97.9594 23.0625C97.6895 24.34 97.1362 25.4555 96.2996 26.4091C95.4719 27.3537 94.4014 28.0914 93.0879 28.6222C91.7835 29.1439 90.2766 29.4048 88.5673 29.4048ZM98.7922 29V8.27273H104.541V16.3153H106.16L111.801 8.27273H118.548L111.221 18.5554L118.629 29H111.801L106.686 21.6456H104.541V29H98.7922ZM116.938 12.7933V8.27273H135.722V12.7933H129.043V29H123.564V12.7933H116.938ZM141.659 21.4162L149.122 8.27273H154.789V29H149.311V15.8161L141.875 29H136.167V8.27273H141.659V21.4162ZM156.358 29V8.27273H165.197C167.751 8.27273 169.771 8.75852 171.256 9.73011C172.74 10.7017 173.482 12.0826 173.482 13.8729C173.482 14.9974 173.064 15.933 172.227 16.6797C171.39 17.4264 170.23 17.9302 168.746 18.1911C169.987 18.281 171.044 18.5644 171.917 19.0412C172.798 19.509 173.469 20.1162 173.927 20.8629C174.395 21.6096 174.629 22.4373 174.629 23.3459C174.629 24.5244 174.314 25.5365 173.684 26.3821C173.064 27.2277 172.151 27.8755 170.945 28.3253C169.749 28.7751 168.287 29 166.559 29H156.358ZM161.715 24.6953H166.559C167.36 24.6953 167.985 24.5064 168.435 24.1286C168.894 23.7417 169.123 23.2154 169.123 22.5497C169.123 21.812 168.894 21.2318 168.435 20.8089C167.985 20.3861 167.36 20.1747 166.559 20.1747H161.715V24.6953ZM161.715 16.8011H165.318C165.894 16.8011 166.384 16.7202 166.789 16.5582C167.203 16.3873 167.518 16.1444 167.733 15.8295C167.958 15.5147 168.071 15.1413 168.071 14.7095C168.071 14.0708 167.814 13.5715 167.302 13.2116C166.789 12.8518 166.087 12.6719 165.197 12.6719H161.715V16.8011ZM189.638 16.3423V20.8629H178.815V16.3423H189.638ZM180.704 8.27273V29H175.212V8.27273H180.704ZM193.241 8.27273V29H187.789V8.27273H193.241ZM198.264 14.642H204.457C207.201 14.642 209.342 15.2988 210.881 16.6122C212.419 17.9167 213.188 19.6619 213.188 21.848C213.188 23.2694 212.842 24.5199 212.149 25.5994C211.457 26.67 210.458 27.5066 209.153 28.1094C207.849 28.7031 206.284 29 204.457 29H194.661V8.27273H200.153V24.4794H204.457C205.42 24.4794 206.212 24.2365 206.832 23.7507C207.453 23.2649 207.768 22.6442 207.777 21.8885C207.768 21.0878 207.453 20.4356 206.832 19.9318C206.212 19.419 205.42 19.1626 204.457 19.1626H198.264V14.642ZM215.415 29V8.27273H221.163V29H215.415ZM228.21 21.4162L235.673 8.27273H241.34V29H235.862V15.8161L228.426 29H222.718V8.27273H228.21V21.4162ZM234.688 1.03977H238.696C238.687 2.67708 238.079 3.99503 236.874 4.99361C235.677 5.99219 234.058 6.49148 232.016 6.49148C229.965 6.49148 228.341 5.99219 227.144 4.99361C225.948 3.99503 225.35 2.67708 225.35 1.03977H229.33C229.321 1.66051 229.519 2.21828 229.924 2.71307C230.338 3.20786 231.035 3.45526 232.016 3.45526C232.969 3.45526 233.653 3.21236 234.067 2.72656C234.481 2.24077 234.688 1.6785 234.688 1.03977ZM10.6591 75.4048C8.56297 75.4048 6.75024 74.9595 5.22088 74.0689C3.70052 73.1693 2.52652 71.9188 1.69886 70.3175C0.871212 68.7071 0.457386 66.8404 0.457386 64.7173C0.457386 62.5762 0.871212 60.705 1.69886 59.1037C2.52652 57.4934 3.70052 56.2429 5.22088 55.3523C6.75024 54.4527 8.56297 54.0028 10.6591 54.0028C12.7552 54.0028 14.5634 54.4527 16.0838 55.3523C17.6132 56.2429 18.7917 57.4934 19.6193 59.1037C20.447 60.705 20.8608 62.5762 20.8608 64.7173C20.8608 66.8404 20.447 68.7071 19.6193 70.3175C18.7917 71.9188 17.6132 73.1693 16.0838 74.0689C14.5634 74.9595 12.7552 75.4048 10.6591 75.4048ZM10.6861 70.9517C11.6397 70.9517 12.4358 70.6818 13.0746 70.142C13.7133 69.5933 14.1946 68.8466 14.5185 67.902C14.8513 66.9574 15.0178 65.8823 15.0178 64.6768C15.0178 63.4714 14.8513 62.3963 14.5185 61.4517C14.1946 60.5071 13.7133 59.7604 13.0746 59.2116C12.4358 58.6629 11.6397 58.3885 10.6861 58.3885C9.72348 58.3885 8.91383 58.6629 8.2571 59.2116C7.60938 59.7604 7.11908 60.5071 6.78622 61.4517C6.46236 62.3963 6.30043 63.4714 6.30043 64.6768C6.30043 65.8823 6.46236 66.9574 6.78622 67.902C7.11908 68.8466 7.60938 69.5933 8.2571 70.142C8.91383 70.6818 9.72348 70.9517 10.6861 70.9517ZM38.791 46.6619L40.5452 50.4134C39.9605 50.8991 39.3127 51.259 38.602 51.4929C37.8913 51.7178 37.0412 51.8662 36.0516 51.9382C35.071 52.0102 33.8745 52.0597 32.4621 52.0866C30.8608 52.1046 29.5564 52.361 28.5488 52.8558C27.5412 53.3506 26.7765 54.1288 26.2547 55.1903C25.733 56.2429 25.3911 57.6193 25.2292 59.3196H25.4316C26.0523 58.0511 26.925 57.0705 28.0495 56.3778C29.183 55.6851 30.5819 55.3388 32.2462 55.3388C34.0095 55.3388 35.5523 55.7256 36.8748 56.4993C38.2062 57.273 39.2408 58.384 39.9785 59.8324C40.7162 61.2808 41.085 63.017 41.085 65.0412C41.085 67.1463 40.6712 68.977 39.8435 70.5334C39.0249 72.0807 37.8599 73.2817 36.3485 74.1364C34.8371 74.982 33.0379 75.4048 30.9508 75.4048C28.8546 75.4048 27.0464 74.964 25.5261 74.0824C24.0147 73.2008 22.8452 71.9008 22.0175 70.1825C21.1989 68.4643 20.7895 66.3501 20.7895 63.8402V62.1399C20.7895 57.147 21.7611 53.4451 23.7043 51.0341C25.6475 48.6231 28.5038 47.3996 32.2732 47.3636C33.2988 47.3456 34.2254 47.3411 35.053 47.3501C35.8807 47.3591 36.6049 47.3187 37.2256 47.2287C37.8554 47.1387 38.3771 46.9498 38.791 46.6619ZM30.9778 70.9517C31.8594 70.9517 32.6151 70.7223 33.2448 70.2635C33.8835 69.8047 34.3738 69.148 34.7157 68.2933C35.0665 67.4387 35.242 66.4176 35.242 65.2301C35.242 64.0516 35.0665 63.053 34.7157 62.2344C34.3738 61.4067 33.8835 60.777 33.2448 60.3452C32.6061 59.9134 31.8414 59.6974 30.9508 59.6974C30.285 59.6974 29.6868 59.8189 29.156 60.0618C28.6252 60.3047 28.1709 60.6645 27.7931 61.1413C27.4243 61.6091 27.1364 62.1894 26.9295 62.8821C26.7315 63.5658 26.6326 64.3485 26.6326 65.2301C26.6326 67.0024 27.0149 68.4013 27.7796 69.4268C28.5533 70.4434 29.6193 70.9517 30.9778 70.9517ZM74.4223 70.4794L74.0175 80.9375H68.7412V75H66.4337V70.4794H74.4223ZM41.8605 54.2727H47.3527V70.4389H53.1957V54.2727H58.6879V70.4389H64.531V54.2727H70.0232V75H41.8605V54.2727ZM84.04 75.4048C81.9079 75.4048 80.0726 74.973 78.5343 74.1094C77.0049 73.2367 75.8264 72.0043 74.9988 70.4119C74.1711 68.8106 73.7573 66.9169 73.7573 64.7308C73.7573 62.5987 74.1711 60.7275 74.9988 59.1172C75.8264 57.5069 76.9914 56.2519 78.4938 55.3523C80.0052 54.4527 81.7774 54.0028 83.8106 54.0028C85.178 54.0028 86.451 54.2232 87.6295 54.6641C88.817 55.0959 89.8515 55.7481 90.7332 56.6207C91.6238 57.4934 92.3165 58.5909 92.8113 59.9134C93.3061 61.2268 93.5535 62.7652 93.5535 64.5284V66.1072H76.0513V62.5447H88.1422C88.1422 61.7171 87.9623 60.9839 87.6025 60.3452C87.2426 59.7064 86.7433 59.2071 86.1046 58.8473C85.4749 58.4785 84.7417 58.294 83.905 58.294C83.0324 58.294 82.2587 58.4964 81.584 58.9013C80.9183 59.2971 80.3965 59.8324 80.0187 60.5071C79.6408 61.1728 79.4474 61.915 79.4384 62.7337V66.1207C79.4384 67.1463 79.6273 68.0324 80.0052 68.7791C80.392 69.5258 80.9363 70.1016 81.638 70.5064C82.3397 70.9112 83.1718 71.1136 84.1344 71.1136C84.7732 71.1136 85.3579 71.0237 85.8887 70.8438C86.4195 70.6638 86.8738 70.3939 87.2516 70.0341C87.6295 69.6742 87.9173 69.2334 88.1153 68.7116L93.432 69.0625C93.1621 70.34 92.6089 71.4555 91.7722 72.4091C90.9446 73.3537 89.874 74.0914 88.5606 74.6222C87.2561 75.1439 85.7493 75.4048 84.04 75.4048ZM94.2649 75V54.2727H112.388V75H106.896V58.7933H99.6896V75H94.2649ZM119.428 67.4162L126.89 54.2727H132.558V75H127.079V61.8161L119.644 75H113.936V54.2727H119.428V67.4162ZM132.045 58.7933V54.2727H150.829V58.7933H144.149V75H138.671V58.7933H132.045Z" fill="white"/>
<path d="M21.0902 13.1442H21.5902V12.6442H21.0902V13.1442ZM21.0902 17.8267V18.3267H21.5902V17.8267H21.0902ZM9.17472 17.8267H8.67472V18.3267H9.17472V17.8267ZM9.17472 13.1442V12.6442H8.67472V13.1442H9.17472ZM0.943182 19.9453V19.4453H0.405639L0.44449 19.9814L0.943182 19.9453ZM6.75923 19.9453L7.25826 19.9141L7.22896 19.4453H6.75923V19.9453ZM8.24361 23.5213L8.57788 23.1495L8.57788 23.1495L8.24361 23.5213ZM15.5845 23.7237L15.8958 24.115L15.8958 24.115L15.5845 23.7237ZM17.3928 20.8494L17.8723 20.9909L17.8726 20.99L17.3928 20.8494ZM17.3118 9.5142L16.8371 9.6713L16.8385 9.6754L17.3118 9.5142ZM15.4091 6.6804L15.1077 7.07938L15.1098 7.0809L15.4091 6.6804ZM9.05327 6.31605L8.82341 5.87201L9.05327 6.31605ZM7.37997 8.01633L7.83048 8.23324L7.8315 8.23109L7.37997 8.01633ZM6.73224 10.6612V11.1612H7.19464L7.23072 10.7002L6.73224 10.6612ZM0.916193 10.6612L0.418626 10.612L0.364243 11.1612H0.916193V10.6612ZM2.48153 5.74929L2.05186 5.49359L2.05139 5.49439L2.48153 5.74929ZM6.19247 2.26776L5.95807 1.8261L5.95705 1.82665L6.19247 2.26776ZM18.2699 2.59162L18.5333 2.16663L18.5333 2.16663L18.2699 2.59162ZM22.2777 7.1392L22.7282 6.92223L22.7282 6.92223L22.2777 7.1392ZM22.3047 23.2919L21.853 23.0775L21.8526 23.0784L22.3047 23.2919ZM18.3509 27.799L18.612 28.2254L18.6136 28.2244L18.3509 27.799ZM6.34091 28.1903L6.12028 28.639L6.12229 28.64L6.34091 28.1903ZM2.52202 24.8707L2.10195 25.1419L2.10273 25.1431L2.52202 24.8707ZM20.5902 13.1442V17.8267H21.5902V13.1442H20.5902ZM21.0902 17.3267H9.17472V18.3267H21.0902V17.3267ZM9.67472 17.8267V13.1442H8.67472V17.8267H9.67472ZM9.17472 13.6442H21.0902V12.6442H9.17472V13.6442ZM0.943182 20.4453H6.75923V19.4453H0.943182V20.4453ZM6.26021 19.9765C6.3646 21.6468 6.89289 22.9794 7.90933 23.8931L8.57788 23.1495C7.81308 22.4619 7.35179 21.4105 7.25826 19.9141L6.26021 19.9765ZM7.90933 23.8931C8.92602 24.8071 10.3843 25.2223 12.1974 25.2223V24.2223C10.5201 24.2223 9.34244 23.8368 8.57788 23.1495L7.90933 23.8931ZM12.1974 25.2223C13.6946 25.2223 14.9454 24.8713 15.8958 24.115L15.2732 23.3325C14.5504 23.9076 13.5431 24.2223 12.1974 24.2223V25.2223ZM15.8958 24.115C16.8291 23.3723 17.4809 22.318 17.8723 20.9909L16.9132 20.708C16.5669 21.8818 16.0132 22.7437 15.2732 23.3325L15.8958 24.115ZM17.8726 20.99C18.2584 19.6725 18.446 18.1157 18.446 16.3288H17.446C17.446 18.0505 17.2648 19.5075 16.9129 20.7089L17.8726 20.99ZM18.446 16.3288V14.0888H17.446V16.3288H18.446ZM18.446 14.0888C18.446 12.2449 18.2309 10.6619 17.7851 9.35301L16.8385 9.6754C17.2383 10.8495 17.446 12.3161 17.446 14.0888H18.446ZM17.7865 9.35711C17.3481 8.0325 16.6625 6.99298 15.7084 6.27989L15.1098 7.0809C15.8649 7.64528 16.4478 8.49496 16.8371 9.67129L17.7865 9.35711ZM15.7104 6.28142C14.7584 5.56234 13.5608 5.2223 12.157 5.2223V6.2223C13.398 6.2223 14.3685 6.52099 15.1077 7.07938L15.7104 6.28142ZM12.157 5.2223C10.8102 5.2223 9.68637 5.42531 8.82341 5.87201L9.28312 6.76008C9.94952 6.41512 10.8948 6.2223 12.157 6.2223V5.2223ZM8.82341 5.87201C7.9674 6.31513 7.32882 6.95976 6.92844 7.80158L7.8315 8.23109C8.13283 7.59753 8.60977 7.10864 9.28312 6.76008L8.82341 5.87201ZM6.92947 7.79943C6.54533 8.59726 6.31826 9.54258 6.23377 10.6222L7.23072 10.7002C7.30816 9.71074 7.51291 8.8928 7.83047 8.23324L6.92947 7.79943ZM6.73224 10.1612H0.916193V11.1612H6.73224V10.1612ZM1.41376 10.7105C1.58706 8.96014 2.0881 7.39398 2.91168 6.00419L2.05139 5.49439C1.1477 7.01937 0.605173 8.72783 0.418626 10.612L1.41376 10.7105ZM2.91121 6.00498C3.73421 4.622 4.90168 3.52342 6.42789 2.70886L5.95705 1.82665C4.28061 2.72137 2.97412 3.94381 2.05186 5.49359L2.91121 6.00498ZM6.42687 2.70941C7.9467 1.90279 9.84909 1.48579 12.157 1.48579V0.485794C9.73282 0.485794 7.65889 0.923436 5.95807 1.8261L6.42687 2.70941ZM12.157 1.48579C14.4266 1.48579 16.37 2.00232 18.0065 3.01661L18.5333 2.16663C16.7152 1.03982 14.5833 0.485794 12.157 0.485794V1.48579ZM18.0065 3.01661C19.6471 4.03343 20.9208 5.47435 21.8272 7.35617L22.7282 6.92223C21.7453 4.88171 20.3473 3.29091 18.5333 2.16663L18.0065 3.01661ZM21.8272 7.35617C22.7326 9.23583 23.1946 11.4795 23.1946 14.1023H24.1946C24.1946 11.3633 23.712 8.96492 22.7282 6.92223L21.8272 7.35617ZM23.1946 14.1023V16.3423H24.1946V14.1023H23.1946ZM23.1946 16.3423C23.1946 18.9665 22.7411 21.2065 21.853 23.0775L22.7564 23.5063C23.7215 21.473 24.1946 19.08 24.1946 16.3423H23.1946ZM21.8526 23.0784C20.9735 24.94 19.7187 26.3662 18.0881 27.3736L18.6136 28.2244C20.4195 27.1087 21.8007 25.5302 22.7568 23.5054L21.8526 23.0784ZM18.0897 27.3726C16.4634 28.3689 14.5063 28.8778 12.1974 28.8778V29.8778C14.6566 29.8778 16.8018 29.3343 18.612 28.2254L18.0897 27.3726ZM12.1974 28.8778C9.9782 28.8778 8.10452 28.4918 6.55953 27.7407L6.12229 28.64C7.83393 29.4722 9.86461 29.8778 12.1974 29.8778V28.8778ZM6.56154 27.7416C5.00764 26.9776 3.80601 25.9293 2.9413 24.5983L2.10273 25.1431C3.07325 26.637 4.41755 27.8018 6.12028 28.639L6.56154 27.7416ZM2.94209 24.5996C2.07458 23.2558 1.57139 21.6965 1.44187 19.9092L0.44449 19.9814C0.584856 21.9185 1.13423 23.6429 2.10195 25.1419L2.94209 24.5996ZM34.7798 36.044H34.2798V36.544H34.7798V36.044ZM34.7798 1.36364V0.863636H34.2798V1.36364H34.7798ZM40.5149 1.36364H41.0149V0.863636H40.5149V1.36364ZM40.5149 36.044V36.544H41.0149V36.044H40.5149ZM30.4211 28.6357L30.2365 29.1003L30.2393 29.1014L30.4211 28.6357ZM27.0205 26.4361L26.667 26.7896L26.6687 26.7913L27.0205 26.4361ZM24.8075 23.049L24.3428 23.2336L24.3432 23.2347L24.8075 23.049ZM24.8075 14.3722L25.2717 14.5579L25.2722 14.5568L24.8075 14.3722ZM27.0205 10.9851L27.3724 11.3403L27.3741 11.3386L27.0205 10.9851ZM30.4211 8.78551L30.603 9.25128L30.6057 9.25019L30.4211 8.78551ZM35.8458 8.00284H36.3458V7.50284H35.8458V8.00284ZM35.8458 29.4048V29.9048H36.3458V29.4048H35.8458ZM35.414 24.9247V25.4247H35.914V24.9247H35.414ZM35.414 12.483H35.914V11.983H35.414V12.483ZM32.7151 12.9688L32.9518 13.4092L32.9518 13.4092L32.7151 12.9688ZM31.1903 14.3047L31.5919 14.6026L31.5941 14.5995L31.1903 14.3047ZM30.2457 16.2749L29.7649 16.1375L29.7634 16.1428L30.2457 16.2749ZM30.5021 21.8615L30.0378 22.0472L30.0385 22.0487L30.5021 21.8615ZM32.1619 24.1016L31.858 24.4986L31.8611 24.501L32.1619 24.1016ZM39.4488 29.4048H38.9488V29.9048H39.4488V29.4048ZM39.4488 8.00284V7.50284H38.9488V8.00284H39.4488ZM44.8735 8.78551L44.6889 9.25019L44.6917 9.25127L44.8735 8.78551ZM48.2741 10.9851L47.9205 11.3386L47.9222 11.3403L48.2741 10.9851ZM50.4872 14.3722L50.0225 14.5568L50.0229 14.5579L50.4872 14.3722ZM50.4872 23.049L50.9514 23.2347L50.9518 23.2336L50.4872 23.049ZM48.2741 26.4361L48.626 26.7913L48.6277 26.7896L48.2741 26.4361ZM44.8735 28.6357L45.0554 29.1014L45.0581 29.1003L44.8735 28.6357ZM42.5795 24.4524L42.811 24.8956L42.8162 24.8929L42.5795 24.4524ZM45.049 21.1463L45.5293 21.2852L45.5297 21.2837L45.049 21.1463ZM44.7926 15.5732L44.3283 15.7589L44.3305 15.7642L44.7926 15.5732ZM43.1463 13.3196L43.4525 12.9244L43.4525 12.9244L43.1463 13.3196ZM39.8806 12.483V11.983H39.3806V12.483H39.8806ZM39.8806 24.9247H39.3806V25.4247H39.8806V24.9247ZM35.2798 36.044V1.36364H34.2798V36.044H35.2798ZM34.7798 1.86364H40.5149V0.863636H34.7798V1.86364ZM40.0149 1.36364V36.044H41.0149V1.36364H40.0149ZM40.5149 35.544H34.7798V36.544H40.5149V35.544ZM34.7798 28.9048C33.2417 28.9048 31.8514 28.6573 30.603 28.1699L30.2393 29.1014C31.6177 29.6396 33.1332 29.9048 34.7798 29.9048V28.9048ZM30.6057 28.171C29.3515 27.6727 28.2757 26.9756 27.3724 26.0809L26.6687 26.7913C27.6726 27.7858 28.8639 28.555 30.2365 29.1003L30.6057 28.171ZM27.3741 26.0825C26.4704 25.1788 25.7694 24.1076 25.2717 22.8633L24.3432 23.2347C24.8891 24.5993 25.6635 25.7862 26.667 26.7896L27.3741 26.0825ZM25.2722 22.8644C24.7762 21.616 24.5248 20.2356 24.5248 18.7173H23.5248C23.5248 20.3477 23.7952 21.8551 24.3428 23.2336L25.2722 22.8644ZM24.5248 18.7173C24.5248 17.1802 24.7765 15.7959 25.2717 14.5579L24.3432 14.1865C23.7949 15.5573 23.5248 17.0698 23.5248 18.7173H24.5248ZM25.2722 14.5568C25.7699 13.3039 26.4704 12.2339 27.3724 11.3403L26.6687 10.6299C25.6635 11.6255 24.8887 12.8135 24.3428 14.1876L25.2722 14.5568ZM27.3741 11.3386C28.2766 10.4361 29.3509 9.74009 30.603 9.25127L30.2393 8.31975C28.8644 8.8565 27.6717 9.62684 26.667 10.6315L27.3741 11.3386ZM30.6057 9.25019C31.8534 8.75452 33.2427 8.50284 34.7798 8.50284V7.50284C33.1322 7.50284 31.6157 7.77295 30.2365 8.32083L30.6057 9.25019ZM34.7798 8.50284H35.8458V7.50284H34.7798V8.50284ZM35.3458 8.00284V29.4048H36.3458V8.00284H35.3458ZM35.8458 28.9048H34.7798V29.9048H35.8458V28.9048ZM34.7798 25.4247H35.414V24.4247H34.7798V25.4247ZM35.914 24.9247V12.483H34.914V24.9247H35.914ZM35.414 11.983H34.7798V12.983H35.414V11.983ZM34.7798 11.983C33.9344 11.983 33.1631 12.1605 32.4785 12.5283L32.9518 13.4092C33.4727 13.1293 34.0778 12.983 34.7798 12.983V11.983ZM32.4785 12.5283C31.8081 12.8885 31.2433 13.3842 30.7865 14.0098L31.5941 14.5995C31.965 14.0916 32.4167 13.6967 32.9518 13.4092L32.4785 12.5283ZM30.7887 14.0068C30.3347 14.6188 29.9952 15.3315 29.7649 16.1375L30.7265 16.4122C30.928 15.7068 31.2183 15.1061 31.5918 14.6026L30.7887 14.0068ZM29.7634 16.1428C29.5435 16.9461 29.4353 17.8051 29.4353 18.7173H30.4353C30.4353 17.8843 30.5341 17.115 30.7279 16.4069L29.7634 16.1428ZM29.4353 18.7173C29.4353 19.9241 29.6335 21.0363 30.0378 22.0472L30.9663 21.6758C30.615 20.7975 30.4353 19.8136 30.4353 18.7173H29.4353ZM30.0385 22.0487C30.4464 23.0588 31.0513 23.8811 31.858 24.4986L32.4658 23.7045C31.8151 23.2065 31.3135 22.5354 30.9657 21.6743L30.0385 22.0487ZM31.8611 24.501C32.6864 25.1225 33.6677 25.4247 34.7798 25.4247V24.4247C33.8587 24.4247 33.0948 24.1782 32.4627 23.7022L31.8611 24.501ZM40.5149 28.9048H39.4488V29.9048H40.5149V28.9048ZM39.9488 29.4048V8.00284H38.9488V29.4048H39.9488ZM39.4488 8.50284H40.5149V7.50284H39.4488V8.50284ZM40.5149 8.50284C42.0519 8.50284 43.4412 8.75452 44.6889 9.25019L45.0581 8.32083C43.679 7.77295 42.1624 7.50284 40.5149 7.50284V8.50284ZM44.6917 9.25127C45.9438 9.74009 47.018 10.4361 47.9205 11.3386L48.6277 10.6315C47.623 9.62684 46.4302 8.8565 45.0554 8.31975L44.6917 9.25127ZM47.9222 11.3403C48.8243 12.2339 49.5248 13.3039 50.0225 14.5568L50.9518 14.1876C50.406 12.8135 49.6311 11.6255 48.626 10.6299L47.9222 11.3403ZM50.0229 14.5579C50.5181 15.7959 50.7698 17.1802 50.7698 18.7173H51.7698C51.7698 17.0698 51.4998 15.5573 50.9514 14.1865L50.0229 14.5579ZM50.7698 18.7173C50.7698 20.2356 50.5184 21.616 50.0225 22.8644L50.9518 23.2336C51.4995 21.8551 51.7698 20.3477 51.7698 18.7173H50.7698ZM50.0229 22.8633C49.5252 24.1076 48.8243 25.1788 47.9205 26.0825L48.6277 26.7896C49.6311 25.7862 50.4055 24.5993 50.9514 23.2347L50.0229 22.8633ZM47.9222 26.0809C47.019 26.9756 45.9432 27.6727 44.6889 28.171L45.0581 29.1003C46.4308 28.555 47.622 27.7858 48.626 26.7913L47.9222 26.0809ZM44.6917 28.1699C43.4432 28.6573 42.053 28.9048 40.5149 28.9048V29.9048C42.1614 29.9048 43.677 29.6396 45.0554 29.1014L44.6917 28.1699ZM40.5149 25.4247C41.358 25.4247 42.1275 25.2526 42.811 24.8956L42.348 24.0092C41.826 24.2819 41.2191 24.4247 40.5149 24.4247V25.4247ZM42.8162 24.8929C43.4865 24.5327 44.0514 24.0369 44.5082 23.4113L43.7005 22.8216C43.3297 23.3296 42.878 23.7244 42.3428 24.012L42.8162 24.8929ZM44.5082 23.4113C44.9599 22.7926 45.2989 22.0819 45.5293 21.2852L44.5686 21.0074C44.3672 21.7041 44.0765 22.3068 43.7005 22.8216L44.5082 23.4113ZM45.5297 21.2837C45.7596 20.4791 45.8728 19.6229 45.8728 18.7173H44.8728C44.8728 19.5391 44.7701 20.3021 44.5682 21.0089L45.5297 21.2837ZM45.8728 18.7173C45.8728 17.5008 45.6699 16.3865 45.2546 15.3821L44.3305 15.7642C44.6889 16.631 44.8728 17.6129 44.8728 18.7173H45.8728ZM45.2568 15.3875C44.8499 14.3701 44.2506 13.5429 43.4525 12.9244L42.84 13.7148C43.4813 14.2118 43.9796 14.887 44.3283 15.7588L45.2568 15.3875ZM43.4525 12.9244C42.6334 12.2896 41.6445 11.983 40.5149 11.983V12.983C41.4544 12.983 42.2197 13.2341 42.84 13.7148L43.4525 12.9244ZM40.5149 11.983H39.8806V12.983H40.5149V11.983ZM39.3806 12.483V24.9247H40.3806V12.483H39.3806ZM39.8806 25.4247H40.5149V24.4247H39.8806V25.4247ZM61.9097 36.044H61.4097V36.544H61.9097V36.044ZM61.9097 1.36364V0.863636H61.4097V1.36364H61.9097ZM67.6448 1.36364H68.1448V0.863636H67.6448V1.36364ZM67.6448 36.044V36.544H68.1448V36.044H67.6448ZM57.551 28.6357L57.3664 29.1003L57.3692 29.1014L57.551 28.6357ZM54.1505 26.4361L53.7969 26.7896L53.7986 26.7913L54.1505 26.4361ZM51.9374 23.049L51.4727 23.2336L51.4732 23.2347L51.9374 23.049ZM51.9374 14.3722L52.4016 14.5579L52.4021 14.5568L51.9374 14.3722ZM54.1505 10.9851L54.5023 11.3403L54.504 11.3386L54.1505 10.9851ZM57.551 8.78551L57.7329 9.25128L57.7356 9.25019L57.551 8.78551ZM62.9758 8.00284H63.4758V7.50284H62.9758V8.00284ZM62.9758 29.4048V29.9048H63.4758V29.4048H62.9758ZM62.5439 24.9247V25.4247H63.0439V24.9247H62.5439ZM62.5439 12.483H63.0439V11.983H62.5439V12.483ZM59.8451 12.9688L60.0817 13.4092L60.0817 13.4092L59.8451 12.9688ZM58.3202 14.3047L58.7218 14.6026L58.724 14.5995L58.3202 14.3047ZM57.3756 16.2749L56.8948 16.1375L56.8934 16.1428L57.3756 16.2749ZM57.632 21.8615L57.1678 22.0472L57.1684 22.0487L57.632 21.8615ZM59.2918 24.1016L58.9879 24.4986L58.991 24.501L59.2918 24.1016ZM66.5787 29.4048H66.0787V29.9048H66.5787V29.4048ZM66.5787 8.00284V7.50284H66.0787V8.00284H66.5787ZM72.0035 8.78551L71.8189 9.25019L71.8216 9.25127L72.0035 8.78551ZM75.404 10.9851L75.0505 11.3386L75.0521 11.3403L75.404 10.9851ZM77.6171 14.3722L77.1524 14.5568L77.1528 14.5579L77.6171 14.3722ZM77.6171 23.049L78.0813 23.2347L78.0818 23.2336L77.6171 23.049ZM75.404 26.4361L75.7559 26.7913L75.7576 26.7896L75.404 26.4361ZM72.0035 28.6357L72.1853 29.1014L72.188 29.1003L72.0035 28.6357ZM69.7094 24.4524L69.9409 24.8956L69.9461 24.8929L69.7094 24.4524ZM72.1789 21.1463L72.6592 21.2852L72.6596 21.2837L72.1789 21.1463ZM71.9225 15.5732L71.4582 15.7589L71.4604 15.7642L71.9225 15.5732ZM70.2762 13.3196L70.5825 12.9244L70.5825 12.9244L70.2762 13.3196ZM67.0106 12.483V11.983H66.5106V12.483H67.0106ZM67.0106 24.9247H66.5106V25.4247H67.0106V24.9247ZM62.4097 36.044V1.36364H61.4097V36.044H62.4097ZM61.9097 1.86364H67.6448V0.863636H61.9097V1.86364ZM67.1448 1.36364V36.044H68.1448V1.36364H67.1448ZM67.6448 35.544H61.9097V36.544H67.6448V35.544ZM61.9097 28.9048C60.3716 28.9048 58.9814 28.6573 57.7329 28.1699L57.3692 29.1014C58.7476 29.6396 60.2631 29.9048 61.9097 29.9048V28.9048ZM57.7356 28.171C56.4814 27.6727 55.4056 26.9756 54.5023 26.0809L53.7986 26.7913C54.8025 27.7858 55.9938 28.555 57.3664 29.1003L57.7356 28.171ZM54.504 26.0825C53.6003 25.1788 52.8993 24.1076 52.4016 22.8633L51.4732 23.2347C52.019 24.5993 52.7934 25.7862 53.7969 26.7896L54.504 26.0825ZM52.4021 22.8644C51.9061 21.616 51.6547 20.2356 51.6547 18.7173H50.6547C50.6547 20.3477 50.9251 21.8551 51.4727 23.2336L52.4021 22.8644ZM51.6547 18.7173C51.6547 17.1802 51.9064 15.7959 52.4016 14.5579L51.4732 14.1865C50.9248 15.5573 50.6547 17.0698 50.6547 18.7173H51.6547ZM52.4021 14.5568C52.8998 13.3039 53.6003 12.2339 54.5023 11.3403L53.7986 10.6299C52.7935 11.6255 52.0186 12.8135 51.4727 14.1876L52.4021 14.5568ZM54.504 11.3386C55.4065 10.4361 56.4808 9.74009 57.7329 9.25127L57.3692 8.31975C55.9944 8.8565 54.8016 9.62684 53.7969 10.6315L54.504 11.3386ZM57.7356 9.25019C58.9834 8.75452 60.3726 8.50284 61.9097 8.50284V7.50284C60.2621 7.50284 58.7456 7.77295 57.3664 8.32083L57.7356 9.25019ZM61.9097 8.50284H62.9758V7.50284H61.9097V8.50284ZM62.4758 8.00284V29.4048H63.4758V8.00284H62.4758ZM62.9758 28.9048H61.9097V29.9048H62.9758V28.9048ZM61.9097 25.4247H62.5439V24.4247H61.9097V25.4247ZM63.0439 24.9247V12.483H62.0439V24.9247H63.0439ZM62.5439 11.983H61.9097V12.983H62.5439V11.983ZM61.9097 11.983C61.0644 11.983 60.293 12.1605 59.6084 12.5283L60.0817 13.4092C60.6027 13.1293 61.2077 12.983 61.9097 12.983V11.983ZM59.6084 12.5283C58.938 12.8885 58.3732 13.3842 57.9164 14.0098L58.724 14.5995C59.0949 14.0916 59.5466 13.6967 60.0817 13.4092L59.6084 12.5283ZM57.9187 14.0068C57.4646 14.6188 57.1251 15.3315 56.8948 16.1375L57.8564 16.4122C58.0579 15.7068 58.3482 15.1061 58.7218 14.6026L57.9187 14.0068ZM56.8934 16.1428C56.6734 16.9461 56.5652 17.8051 56.5652 18.7173H57.5652C57.5652 17.8843 57.664 17.115 57.8579 16.4069L56.8934 16.1428ZM56.5652 18.7173C56.5652 19.9241 56.7634 21.0363 57.1678 22.0472L58.0962 21.6758C57.7449 20.7975 57.5652 19.8136 57.5652 18.7173H56.5652ZM57.1684 22.0487C57.5763 23.0588 58.1812 23.8811 58.9879 24.4986L59.5957 23.7045C58.945 23.2065 58.4434 22.5354 58.0956 21.6743L57.1684 22.0487ZM58.991 24.501C59.8163 25.1225 60.7977 25.4247 61.9097 25.4247V24.4247C60.9886 24.4247 60.2247 24.1782 59.5926 23.7022L58.991 24.501ZM67.6448 28.9048H66.5787V29.9048H67.6448V28.9048ZM67.0787 29.4048V8.00284H66.0787V29.4048H67.0787ZM66.5787 8.50284H67.6448V7.50284H66.5787V8.50284ZM67.6448 8.50284C69.1819 8.50284 70.5711 8.75452 71.8189 9.25019L72.188 8.32083C70.8089 7.77295 69.2924 7.50284 67.6448 7.50284V8.50284ZM71.8216 9.25127C73.0737 9.74009 74.148 10.4361 75.0505 11.3386L75.7576 10.6315C74.7529 9.62684 73.5601 8.8565 72.1853 8.31975L71.8216 9.25127ZM75.0521 11.3403C75.9542 12.2339 76.6547 13.3039 77.1524 14.5568L78.0818 14.1876C77.5359 12.8135 76.761 11.6255 75.7559 10.6299L75.0521 11.3403ZM77.1528 14.5579C77.6481 15.7959 77.8998 17.1802 77.8998 18.7173H78.8998C78.8998 17.0698 78.6297 15.5573 78.0813 14.1865L77.1528 14.5579ZM77.8998 18.7173C77.8998 20.2356 77.6483 21.616 77.1524 22.8644L78.0818 23.2336C78.6294 21.8551 78.8998 20.3477 78.8998 18.7173H77.8998ZM77.1528 22.8633C76.6551 24.1076 75.9542 25.1788 75.0505 26.0825L75.7576 26.7896C76.7611 25.7862 77.5355 24.5993 78.0813 23.2347L77.1528 22.8633ZM75.0521 26.0809C74.1489 26.9756 73.0731 27.6727 71.8189 28.171L72.188 29.1003C73.5607 28.555 74.752 27.7858 75.7559 26.7913L75.0521 26.0809ZM71.8216 28.1699C70.5731 28.6573 69.1829 28.9048 67.6448 28.9048V29.9048C69.2913 29.9048 70.8069 29.6396 72.1853 29.1014L71.8216 28.1699ZM67.6448 25.4247C68.4879 25.4247 69.2574 25.2526 69.9409 24.8956L69.4779 24.0092C68.9559 24.2819 68.349 24.4247 67.6448 24.4247V25.4247ZM69.9461 24.8929C70.6165 24.5327 71.1813 24.0369 71.6381 23.4113L70.8305 22.8216C70.4596 23.3296 70.0079 23.7244 69.4728 24.012L69.9461 24.8929ZM71.6381 23.4113C72.0898 22.7926 72.4288 22.0819 72.6592 21.2852L71.6986 21.0074C71.4971 21.7041 71.2064 22.3068 70.8305 22.8216L71.6381 23.4113ZM72.6596 21.2837C72.8895 20.4791 73.0027 19.6229 73.0027 18.7173H72.0027C72.0027 19.5391 71.9001 20.3021 71.6981 21.0089L72.6596 21.2837ZM73.0027 18.7173C73.0027 17.5008 72.7998 16.3865 72.3845 15.3821L71.4604 15.7642C71.8188 16.631 72.0027 17.6129 72.0027 18.7173H73.0027ZM72.3867 15.3875C71.9798 14.3701 71.3805 13.5429 70.5825 12.9244L69.9699 13.7148C70.6112 14.2118 71.1095 14.887 71.4582 15.7588L72.3867 15.3875ZM70.5825 12.9244C69.7634 12.2896 68.7744 11.983 67.6448 11.983V12.983C68.5843 12.983 69.3496 13.2341 69.9699 13.7148L70.5825 12.9244ZM67.6448 11.983H67.0106V12.983H67.6448V11.983ZM66.5106 12.483V24.9247H67.5106V12.483H66.5106ZM67.0106 25.4247H67.6448V24.4247H67.0106V25.4247ZM83.0616 28.1094L82.8138 28.5437L82.8169 28.5454L83.0616 28.1094ZM79.5261 24.4119L79.0819 24.6415L79.0825 24.6425L79.5261 24.4119ZM79.5261 13.1172L79.0814 12.8886L79.0814 12.8886L79.5261 13.1172ZM83.0212 9.35227L82.7654 8.92262L82.7643 8.9233L83.0212 9.35227ZM92.1568 8.66406L91.9816 9.13239L91.9859 9.13396L92.1568 8.66406ZM95.2605 10.6207L94.9088 10.9761L94.9106 10.9779L95.2605 10.6207ZM97.3386 13.9134L96.8703 14.0886L96.8707 14.0896L97.3386 13.9134ZM98.0808 20.1072V20.6072H98.5808V20.1072H98.0808ZM80.5787 20.1072H80.0787V20.6072H80.5787V20.1072ZM80.5787 16.5447V16.0447H80.0787V16.5447H80.5787ZM92.6696 16.5447V17.0447H93.1696V16.5447H92.6696ZM92.1298 14.3452L91.6942 14.5906L91.6942 14.5906L92.1298 14.3452ZM90.632 12.8473L90.3792 13.2788L90.3865 13.2829L90.632 12.8473ZM86.1114 12.9013L86.3669 13.331L86.3686 13.33L86.1114 12.9013ZM84.546 14.5071L84.9809 14.7539L84.9823 14.7514L84.546 14.5071ZM83.9658 16.7337L83.4658 16.7282V16.7337H83.9658ZM84.5325 22.7791L84.0864 23.0049L84.0886 23.0091L84.5325 22.7791ZM90.416 24.8438L90.2555 24.3702L90.2555 24.3702L90.416 24.8438ZM91.779 24.0341L91.4341 23.672L91.4341 23.672L91.779 24.0341ZM92.6426 22.7116L92.6755 22.2127L92.3063 22.1884L92.1751 22.5343L92.6426 22.7116ZM97.9594 23.0625L98.4486 23.1659L98.5678 22.6016L97.9923 22.5636L97.9594 23.0625ZM96.2996 26.4091L95.9237 26.0793L95.9235 26.0796L96.2996 26.4091ZM93.0879 28.6222L93.2736 29.0864L93.2753 29.0857L93.0879 28.6222ZM88.5673 28.9048C86.5031 28.9048 84.7559 28.4871 83.3064 27.6734L82.8169 28.5454C84.4441 29.4589 86.3673 29.9048 88.5673 29.9048V28.9048ZM83.3094 27.6751C81.8653 26.8511 80.754 25.6901 79.9698 24.1813L79.0825 24.6425C79.9536 26.3184 81.1993 27.6224 82.8138 28.5437L83.3094 27.6751ZM79.9703 24.1824C79.1863 22.6656 78.7846 20.8538 78.7846 18.7308H77.7846C77.7846 20.98 78.2106 22.9557 79.0819 24.6415L79.9703 24.1824ZM78.7846 18.7308C78.7846 16.6641 79.1855 14.8738 79.9708 13.3457L79.0814 12.8886C78.2115 14.5812 77.7846 16.5333 77.7846 18.7308H78.7846ZM79.9708 13.3457C80.7573 11.8155 81.8586 10.6312 83.278 9.78124L82.7643 8.9233C81.179 9.87256 79.9502 11.1982 79.0814 12.8886L79.9708 13.3457ZM83.2769 9.78192C84.6995 8.93513 86.3805 8.50284 88.3379 8.50284V7.50284C86.229 7.50284 84.3655 7.97018 82.7654 8.92262L83.2769 9.78192ZM88.3379 8.50284C89.6507 8.50284 90.8638 8.71426 91.9816 9.13237L92.332 8.19575C91.0928 7.73223 89.76 7.50284 88.3379 7.50284V8.50284ZM91.9859 9.13396C93.1069 9.54158 94.0794 10.1552 94.9088 10.9761L95.6122 10.2654C94.6783 9.34099 93.5817 8.65018 92.3277 8.19417L91.9859 9.13396ZM94.9106 10.9779C95.7424 11.7929 96.3978 12.8256 96.8703 14.0886L97.8069 13.7381C97.2899 12.3562 96.5599 11.1939 95.6104 10.2636L94.9106 10.9779ZM96.8707 14.0896C97.3396 15.3344 97.5808 16.8105 97.5808 18.5284H98.5808C98.5808 16.7198 98.3272 15.1192 97.8065 13.7371L96.8707 14.0896ZM97.5808 18.5284V20.1072H98.5808V18.5284H97.5808ZM98.0808 19.6072H80.5787V20.6072H98.0808V19.6072ZM81.0787 20.1072V16.5447H80.0787V20.1072H81.0787ZM80.5787 17.0447H92.6696V16.0447H80.5787V17.0447ZM93.1696 16.5447C93.1696 15.6424 92.9727 14.8226 92.5654 14.0997L91.6942 14.5906C92.0066 15.1452 92.1696 15.7918 92.1696 16.5447H93.1696ZM92.5654 14.0997C92.1608 13.3814 91.5957 12.8164 90.8774 12.4117L90.3865 13.2829C90.9457 13.5979 91.3792 14.0314 91.6942 14.5906L92.5654 14.0997ZM90.8847 12.4159C90.1676 11.9959 89.3446 11.794 88.4324 11.794V12.794C89.1934 12.794 89.8368 12.961 90.3792 13.2787L90.8847 12.4159ZM88.4324 11.794C87.4793 11.794 86.6148 12.0161 85.8541 12.4725L86.3686 13.33C86.9573 12.9768 87.6402 12.794 88.4324 12.794V11.794ZM85.8558 12.4715C85.1147 12.9121 84.5306 13.5113 84.1098 14.2628L84.9823 14.7514C85.3171 14.1534 85.7765 13.6821 86.3669 13.331L85.8558 12.4715ZM84.1112 14.2603C83.6886 15.0048 83.4756 15.8309 83.4658 16.7282L84.4657 16.7392C84.4739 15.9991 84.6477 15.3409 84.9809 14.7539L84.1112 14.2603ZM83.4658 16.7337V20.1207H84.4658V16.7337H83.4658ZM83.4658 20.1207C83.4658 21.2073 83.666 22.1742 84.0864 23.0049L84.9787 22.5534C84.6433 21.8907 84.4658 21.0853 84.4658 20.1207H83.4658ZM84.0886 23.0091C84.5176 23.8373 85.1277 24.485 85.9155 24.9395L86.4152 24.0733C85.7995 23.7181 85.3211 23.2144 84.9765 22.5491L84.0886 23.0091ZM85.9155 24.9395C86.7063 25.3957 87.628 25.6136 88.6618 25.6136V24.6136C87.7703 24.6136 87.0277 24.4267 86.4152 24.0733L85.9155 24.9395ZM88.6618 25.6136C89.3476 25.6136 89.9874 25.517 90.5766 25.3173L90.2555 24.3702C89.7831 24.5304 89.2534 24.6136 88.6618 24.6136V25.6136ZM90.5766 25.3173C91.171 25.1158 91.6895 24.8098 92.1238 24.3962L91.4341 23.672C91.1127 23.9781 90.7227 24.2119 90.2555 24.3702L90.5766 25.3173ZM92.1238 24.3962C92.5596 23.9811 92.8875 23.4758 93.1101 22.889L92.1751 22.5343C92.0019 22.9911 91.7541 23.3673 91.4341 23.672L92.1238 24.3962ZM92.6097 23.2106L97.9264 23.5614L97.9923 22.5636L92.6755 22.2127L92.6097 23.2106ZM97.4702 22.9591C97.2175 24.1552 96.7021 25.1922 95.9237 26.0793L96.6754 26.7388C97.5703 25.7188 98.1615 24.5247 98.4486 23.1659L97.4702 22.9591ZM95.9235 26.0796C95.1537 26.9582 94.1509 27.6533 92.9006 28.1586L93.2753 29.0857C94.6519 28.5294 95.7902 27.7492 96.6756 26.7386L95.9235 26.0796ZM92.9022 28.1579C91.6681 28.6516 90.2264 28.9048 88.5673 28.9048V29.9048C90.3268 29.9048 91.8988 29.6363 93.2736 29.0864L92.9022 28.1579ZM98.7922 29H98.2922V29.5H98.7922V29ZM98.7922 8.27273V7.77273H98.2922V8.27273H98.7922ZM104.541 8.27273H105.041V7.77273H104.541V8.27273ZM104.541 16.3153H104.041V16.8153H104.541V16.3153ZM106.16 16.3153V16.8153H106.42L106.569 16.6024L106.16 16.3153ZM111.801 8.27273V7.77273H111.541L111.391 7.98563L111.801 8.27273ZM118.548 8.27273L118.955 8.56289L119.518 7.77273H118.548V8.27273ZM111.221 18.5554L110.813 18.2652L110.607 18.5547L110.813 18.8447L111.221 18.5554ZM118.629 29V29.5H119.597L119.037 28.7107L118.629 29ZM111.801 29L111.39 29.2855L111.539 29.5H111.801V29ZM106.686 21.6456L107.097 21.3601L106.948 21.1456H106.686V21.6456ZM104.541 21.6456V21.1456H104.041V21.6456H104.541ZM104.541 29V29.5H105.041V29H104.541ZM99.2922 29V8.27273H98.2922V29H99.2922ZM98.7922 8.77273H104.541V7.77273H98.7922V8.77273ZM104.041 8.27273V16.3153H105.041V8.27273H104.041ZM104.541 16.8153H106.16V15.8153H104.541V16.8153ZM106.569 16.6024L112.21 8.55983L111.391 7.98563L105.751 16.0282L106.569 16.6024ZM111.801 8.77273H118.548V7.77273H111.801V8.77273ZM118.141 7.98256L110.813 18.2652L111.628 18.8456L118.955 8.56289L118.141 7.98256ZM110.813 18.8447L118.221 29.2893L119.037 28.7107L111.628 18.2661L110.813 18.8447ZM118.629 28.5H111.801V29.5H118.629V28.5ZM112.211 28.7145L107.097 21.3601L106.276 21.9311L111.39 29.2855L112.211 28.7145ZM106.686 21.1456H104.541V22.1456H106.686V21.1456ZM104.041 21.6456V29H105.041V21.6456H104.041ZM104.541 28.5H98.7922V29.5H104.541V28.5ZM116.938 12.7933H116.438V13.2933H116.938V12.7933ZM116.938 8.27273V7.77273H116.438V8.27273H116.938ZM135.722 8.27273H136.222V7.77273H135.722V8.27273ZM135.722 12.7933V13.2933H136.222V12.7933H135.722ZM129.043 12.7933V12.2933H128.543V12.7933H129.043ZM129.043 29V29.5H129.543V29H129.043ZM123.564 29H123.064V29.5H123.564V29ZM123.564 12.7933H124.064V12.2933H123.564V12.7933ZM117.438 12.7933V8.27273H116.438V12.7933H117.438ZM116.938 8.77273H135.722V7.77273H116.938V8.77273ZM135.222 8.27273V12.7933H136.222V8.27273H135.222ZM135.722 12.2933H129.043V13.2933H135.722V12.2933ZM128.543 12.7933V29H129.543V12.7933H128.543ZM129.043 28.5H123.564V29.5H129.043V28.5ZM124.064 29V12.7933H123.064V29H124.064ZM123.564 12.2933H116.938V13.2933H123.564V12.2933ZM141.659 21.4162H141.159V23.3095L142.094 21.6631L141.659 21.4162ZM149.122 8.27273V7.77273H148.831L148.687 8.02586L149.122 8.27273ZM154.789 8.27273H155.289V7.77273H154.789V8.27273ZM154.789 29V29.5H155.289V29H154.789ZM149.311 29H148.811V29.5H149.311V29ZM149.311 15.8161H149.811V13.9116L148.875 15.5704L149.311 15.8161ZM141.875 29V29.5H142.167L142.311 29.2456L141.875 29ZM136.167 29H135.667V29.5H136.167V29ZM136.167 8.27273V7.77273H135.667V8.27273H136.167ZM141.659 8.27273H142.159V7.77273H141.659V8.27273ZM142.094 21.6631L149.557 8.51959L148.687 8.02586L141.225 21.1693L142.094 21.6631ZM149.122 8.77273H154.789V7.77273H149.122V8.77273ZM154.289 8.27273V29H155.289V8.27273H154.289ZM154.789 28.5H149.311V29.5H154.789V28.5ZM149.811 29V15.8161H148.811V29H149.811ZM148.875 15.5704L141.44 28.7544L142.311 29.2456L149.746 16.0617L148.875 15.5704ZM141.875 28.5H136.167V29.5H141.875V28.5ZM136.667 29V8.27273H135.667V29H136.667ZM136.167 8.77273H141.659V7.77273H136.167V8.77273ZM141.159 8.27273V21.4162H142.159V8.27273H141.159ZM156.358 29H155.858V29.5H156.358V29ZM156.358 8.27273V7.77273H155.858V8.27273H156.358ZM171.256 9.73011L171.529 9.31176L171.529 9.31176L171.256 9.73011ZM172.227 16.6797L171.894 16.3066L171.894 16.3066L172.227 16.6797ZM168.746 18.1911L168.659 17.6986L168.709 18.6897L168.746 18.1911ZM171.917 19.0412L171.677 19.48L171.682 19.4829L171.917 19.0412ZM173.927 20.8629L173.501 21.1247L173.504 21.1284L173.927 20.8629ZM173.684 26.3821L173.283 26.0835L173.281 26.0862L173.684 26.3821ZM170.945 28.3253L170.77 27.8568L170.769 27.8573L170.945 28.3253ZM161.715 24.6953H161.215V25.1953H161.715V24.6953ZM168.435 24.1286L168.757 24.5114L168.757 24.5108L168.435 24.1286ZM168.435 20.8089L168.093 21.1733L168.096 21.1766L168.435 20.8089ZM161.715 20.1747V19.6747H161.215V20.1747H161.715ZM161.715 16.8011H161.215V17.3011H161.715V16.8011ZM166.789 16.5582L166.975 17.0225L166.98 17.0204L166.789 16.5582ZM167.733 15.8295L167.327 15.5389L167.321 15.5468L167.733 15.8295ZM167.302 13.2116L167.589 12.8024L167.589 12.8024L167.302 13.2116ZM161.715 12.6719V12.1719H161.215V12.6719H161.715ZM156.858 29V8.27273H155.858V29H156.858ZM156.358 8.77273H165.197V7.77273H156.358V8.77273ZM165.197 8.77273C167.695 8.77273 169.607 9.24876 170.982 10.1485L171.529 9.31176C169.935 8.26828 167.808 7.77273 165.197 7.77273V8.77273ZM170.982 10.1485C172.323 11.0267 172.982 12.2494 172.982 13.8729H173.982C173.982 11.9158 173.156 10.3767 171.529 9.31176L170.982 10.1485ZM172.982 13.8729C172.982 14.8554 172.624 15.6551 171.894 16.3066L172.56 17.0527C173.503 16.2109 173.982 15.1394 173.982 13.8729H172.982ZM171.894 16.3066C171.147 16.9735 170.082 17.4484 168.659 17.6986L168.832 18.6835C170.378 18.4119 171.634 17.8792 172.56 17.0527L171.894 16.3066ZM168.709 18.6897C169.897 18.7758 170.881 19.045 171.677 19.48L172.156 18.6024C171.207 18.0838 170.077 17.7862 168.782 17.6924L168.709 18.6897ZM171.682 19.4829C172.496 19.9148 173.095 20.4641 173.501 21.1247L174.353 20.6012C173.842 19.7684 173.1 19.1032 172.151 18.5995L171.682 19.4829ZM173.504 21.1284C173.92 21.7929 174.129 22.5281 174.129 23.3459H175.129C175.129 22.3465 174.87 21.4263 174.351 20.5975L173.504 21.1284ZM174.129 23.3459C174.129 24.4301 173.841 25.3342 173.283 26.0835L174.086 26.6807C174.787 25.7387 175.129 24.6187 175.129 23.3459H174.129ZM173.281 26.0862C172.73 26.8372 171.905 27.4333 170.77 27.8568L171.12 28.7937C172.396 28.3176 173.397 27.6183 174.088 26.678L173.281 26.0862ZM170.769 27.8573C169.645 28.2799 168.246 28.5 166.559 28.5V29.5C168.327 29.5 169.852 29.2703 171.121 28.7933L170.769 27.8573ZM166.559 28.5H156.358V29.5H166.559V28.5ZM161.715 25.1953H166.559V24.1953H161.715V25.1953ZM166.559 25.1953C167.435 25.1953 168.189 24.9884 168.757 24.5114L168.114 23.7457C167.782 24.0243 167.285 24.1953 166.559 24.1953V25.1953ZM168.757 24.5108C169.342 24.0179 169.623 23.3447 169.623 22.5497H168.623C168.623 23.0862 168.446 23.4656 168.113 23.7463L168.757 24.5108ZM169.623 22.5497C169.623 21.7001 169.354 20.9761 168.774 20.4413L168.096 21.1766C168.434 21.4875 168.623 21.924 168.623 22.5497H169.623ZM168.778 20.4446C168.21 19.9111 167.448 19.6747 166.559 19.6747V20.6747C167.272 20.6747 167.761 20.8611 168.093 21.1733L168.778 20.4446ZM166.559 19.6747H161.715V20.6747H166.559V19.6747ZM161.215 20.1747V24.6953H162.215V20.1747H161.215ZM161.715 17.3011H165.318V16.3011H161.715V17.3011ZM165.318 17.3011C165.938 17.3011 166.495 17.2143 166.975 17.0225L166.603 16.094C166.273 16.2261 165.849 16.3011 165.318 16.3011V17.3011ZM166.98 17.0204C167.467 16.8189 167.866 16.5202 168.146 16.1123L167.321 15.5468C167.169 15.7686 166.938 15.9557 166.598 16.0961L166.98 17.0204ZM168.14 16.1202C168.433 15.7108 168.571 15.2329 168.571 14.7095H167.571C167.571 15.0498 167.484 15.3186 167.327 15.5389L168.14 16.1202ZM168.571 14.7095C168.571 13.9116 168.238 13.258 167.589 12.8024L167.014 13.6209C167.391 13.885 167.571 14.2299 167.571 14.7095H168.571ZM167.589 12.8024C166.963 12.3633 166.148 12.1719 165.197 12.1719V13.1719C166.026 13.1719 166.615 13.3403 167.014 13.6209L167.589 12.8024ZM165.197 12.1719H161.715V13.1719H165.197V12.1719ZM161.215 12.6719V16.8011H162.215V12.6719H161.215ZM189.638 16.3423H190.138V15.8423H189.638V16.3423ZM189.638 20.8629V21.3629H190.138V20.8629H189.638ZM178.815 20.8629H178.315V21.3629H178.815V20.8629ZM178.815 16.3423V15.8423H178.315V16.3423H178.815ZM180.704 8.27273H181.204V7.77273H180.704V8.27273ZM180.704 29V29.5H181.204V29H180.704ZM175.212 29H174.712V29.5H175.212V29ZM175.212 8.27273V7.77273H174.712V8.27273H175.212ZM193.241 8.27273H193.741V7.77273H193.241V8.27273ZM193.241 29V29.5H193.741V29H193.241ZM187.789 29H187.289V29.5H187.789V29ZM187.789 8.27273V7.77273H187.289V8.27273H187.789ZM189.138 16.3423V20.8629H190.138V16.3423H189.138ZM189.638 20.3629H178.815V21.3629H189.638V20.3629ZM179.315 20.8629V16.3423H178.315V20.8629H179.315ZM178.815 16.8423H189.638V15.8423H178.815V16.8423ZM180.204 8.27273V29H181.204V8.27273H180.204ZM180.704 28.5H175.212V29.5H180.704V28.5ZM175.712 29V8.27273H174.712V29H175.712ZM175.212 8.77273H180.704V7.77273H175.212V8.77273ZM192.741 8.27273V29H193.741V8.27273H192.741ZM193.241 28.5H187.789V29.5H193.241V28.5ZM188.289 29V8.27273H187.289V29H188.289ZM187.789 8.77273H193.241V7.77273H187.789V8.77273ZM198.264 14.642V14.142H197.764V14.642H198.264ZM210.881 16.6122L210.556 16.9925L210.557 16.9936L210.881 16.6122ZM212.149 25.5994L212.569 25.8711L212.57 25.8695L212.149 25.5994ZM209.153 28.1094L209.361 28.5645L209.363 28.5633L209.153 28.1094ZM194.661 29H194.161V29.5H194.661V29ZM194.661 8.27273V7.77273H194.161V8.27273H194.661ZM200.153 8.27273H200.653V7.77273H200.153V8.27273ZM200.153 24.4794H199.653V24.9794H200.153V24.4794ZM206.832 23.7507L207.141 24.1445L207.141 24.1445L206.832 23.7507ZM207.777 21.8885L208.277 21.8944L208.277 21.8829L207.777 21.8885ZM206.832 19.9318L206.514 20.3173L206.517 20.32L206.832 19.9318ZM198.264 19.1626H197.764V19.6626H198.264V19.1626ZM215.415 29H214.915V29.5H215.415V29ZM215.415 8.27273V7.77273H214.915V8.27273H215.415ZM221.163 8.27273H221.663V7.77273H221.163V8.27273ZM221.163 29V29.5H221.663V29H221.163ZM198.264 15.142H204.457V14.142H198.264V15.142ZM204.457 15.142C207.125 15.142 209.136 15.7801 210.556 16.9925L211.205 16.232C209.549 14.8175 207.278 14.142 204.457 14.142V15.142ZM210.557 16.9936C211.973 18.1943 212.688 19.7949 212.688 21.848H213.688C213.688 19.529 212.865 17.639 211.204 16.2309L210.557 16.9936ZM212.688 21.848C212.688 23.1844 212.364 24.339 211.728 25.3294L212.57 25.8695C213.32 24.7008 213.688 23.3544 213.688 21.848H212.688ZM211.729 25.3278C211.094 26.3092 210.174 27.0872 208.944 27.6555L209.363 28.5633C210.742 27.926 211.819 27.0308 212.569 25.8711L211.729 25.3278ZM208.946 27.6543C207.722 28.2115 206.231 28.5 204.457 28.5V29.5C206.336 29.5 207.976 29.1947 209.361 28.5645L208.946 27.6543ZM204.457 28.5H194.661V29.5H204.457V28.5ZM195.161 29V8.27273H194.161V29H195.161ZM194.661 8.77273H200.153V7.77273H194.661V8.77273ZM199.653 8.27273V24.4794H200.653V8.27273H199.653ZM200.153 24.9794H204.457V23.9794H200.153V24.9794ZM204.457 24.9794C205.506 24.9794 206.414 24.7133 207.141 24.1445L206.524 23.357C206.01 23.7597 205.334 23.9794 204.457 23.9794V24.9794ZM207.141 24.1445C207.875 23.5698 208.266 22.8092 208.277 21.8944L207.277 21.8825C207.27 22.4792 207.032 22.96 206.524 23.357L207.141 24.1445ZM208.277 21.8829C208.266 20.9338 207.884 20.1413 207.148 19.5436L206.517 20.32C207.022 20.73 207.27 21.2419 207.277 21.8941L208.277 21.8829ZM207.151 19.5463C206.424 18.9457 205.513 18.6626 204.457 18.6626V19.6626C205.328 19.6626 206 19.8923 206.514 20.3173L207.151 19.5463ZM204.457 18.6626H198.264V19.6626H204.457V18.6626ZM198.764 19.1626V14.642H197.764V19.1626H198.764ZM215.915 29V8.27273H214.915V29H215.915ZM215.415 8.77273H221.163V7.77273H215.415V8.77273ZM220.663 8.27273V29H221.663V8.27273H220.663ZM221.163 28.5H215.415V29.5H221.163V28.5ZM228.21 21.4162H227.71V23.3095L228.645 21.6631L228.21 21.4162ZM235.673 8.27273V7.77273H235.382L235.238 8.02586L235.673 8.27273ZM241.34 8.27273H241.84V7.77273H241.34V8.27273ZM241.34 29V29.5H241.84V29H241.34ZM235.862 29H235.362V29.5H235.862V29ZM235.862 15.8161H236.362V13.9116L235.426 15.5704L235.862 15.8161ZM228.426 29V29.5H228.718L228.862 29.2456L228.426 29ZM222.718 29H222.218V29.5H222.718V29ZM222.718 8.27273V7.77273H222.218V8.27273H222.718ZM228.21 8.27273H228.71V7.77273H228.21V8.27273ZM234.688 1.03977V0.539771H234.188V1.03977H234.688ZM238.696 1.03977L239.196 1.04252L239.198 0.539771H238.696V1.03977ZM236.874 4.99361L236.555 4.60855L236.553 4.60973L236.874 4.99361ZM227.144 4.99361L226.824 5.37748L226.824 5.37748L227.144 4.99361ZM225.35 1.03977V0.539771H224.85V1.03977H225.35ZM229.33 1.03977L229.83 1.04702L229.838 0.539771H229.33V1.03977ZM229.924 2.71307L229.537 3.02971L229.541 3.03385L229.924 2.71307ZM234.067 2.72656L234.448 3.0508L234.448 3.0508L234.067 2.72656ZM228.645 21.6631L236.108 8.51959L235.238 8.02586L227.776 21.1693L228.645 21.6631ZM235.673 8.77273H241.34V7.77273H235.673V8.77273ZM240.84 8.27273V29H241.84V8.27273H240.84ZM241.34 28.5H235.862V29.5H241.34V28.5ZM236.362 29V15.8161H235.362V29H236.362ZM235.426 15.5704L227.991 28.7544L228.862 29.2456L236.297 16.0617L235.426 15.5704ZM228.426 28.5H222.718V29.5H228.426V28.5ZM223.218 29V8.27273H222.218V29H223.218ZM222.718 8.77273H228.21V7.77273H222.718V8.77273ZM227.71 8.27273V21.4162H228.71V8.27273H227.71ZM234.688 1.53977H238.696V0.539771H234.688V1.53977ZM238.196 1.03702C238.187 2.5342 237.641 3.70922 236.555 4.60856L237.193 5.37866C238.518 4.28083 239.186 2.81997 239.196 1.04252L238.196 1.03702ZM236.553 4.60973C235.472 5.51267 233.978 5.99148 232.016 5.99148V6.99148C234.138 6.99148 235.883 6.4717 237.194 5.37748L236.553 4.60973ZM232.016 5.99148C230.044 5.99148 228.546 5.51236 227.465 4.60973L226.824 5.37748C228.135 6.47201 229.885 6.99148 232.016 6.99148V5.99148ZM227.465 4.60973C226.389 3.71153 225.85 2.53742 225.85 1.03977H224.85C224.85 2.81674 225.507 4.27852 226.824 5.37748L227.465 4.60973ZM225.35 1.53977H229.33V0.539771H225.35V1.53977ZM228.831 1.03253C228.82 1.77494 229.06 2.4466 229.537 3.02969L230.311 2.39645C229.979 1.98995 229.823 1.54608 229.83 1.04702L228.831 1.03253ZM229.541 3.03385C230.09 3.69084 230.965 3.95526 232.016 3.95526V2.95526C231.105 2.95526 230.586 2.72488 230.308 2.39229L229.541 3.03385ZM232.016 3.95526C233.042 3.95526 233.9 3.69402 234.448 3.0508L233.686 2.40233C233.407 2.7307 232.896 2.95526 232.016 2.95526V3.95526ZM234.448 3.0508C234.939 2.47445 235.188 1.79721 235.188 1.03977H234.188C234.188 1.55979 234.023 2.00708 233.686 2.40233L234.448 3.0508ZM5.22088 74.0689L4.96625 74.4992L4.96926 74.501L5.22088 74.0689ZM1.69886 70.3175L1.25416 70.546L1.25468 70.547L1.69886 70.3175ZM1.69886 59.1037L2.14304 59.3333L2.14357 59.3323L1.69886 59.1037ZM5.22088 55.3523L5.47361 55.7837L5.47439 55.7832L5.22088 55.3523ZM16.0838 55.3523L15.8292 55.7826L15.8322 55.7843L16.0838 55.3523ZM19.6193 59.1037L19.1746 59.3323L19.1751 59.3333L19.6193 59.1037ZM19.6193 70.3175L20.0635 70.547L20.064 70.546L19.6193 70.3175ZM16.0838 74.0689L16.3365 74.5003L16.3373 74.4999L16.0838 74.0689ZM13.0746 70.142L13.3973 70.524L13.4004 70.5213L13.0746 70.142ZM14.5185 67.902L14.0469 67.7358L14.0455 67.7398L14.5185 67.902ZM14.5185 61.4517L14.0455 61.6139L14.0469 61.6179L14.5185 61.4517ZM13.0746 59.2116L12.7487 59.5909L13.0746 59.2116ZM8.2571 59.2116L7.93649 58.828L7.93389 58.8302L8.2571 59.2116ZM6.78622 61.4517L6.31463 61.2855L6.31325 61.2895L6.78622 61.4517ZM6.78622 67.902L6.31323 68.0642L6.31464 68.0682L6.78622 67.902ZM8.2571 70.142L7.93386 70.5236L7.93962 70.5283L8.2571 70.142ZM10.6591 74.9048C8.63498 74.9048 6.91244 74.4754 5.4725 73.6368L4.96926 74.501C6.58803 75.4437 8.49097 75.9048 10.6591 75.9048V74.9048ZM5.4755 73.6386C4.03764 72.7878 2.92853 71.6076 2.14304 70.0879L1.25468 70.547C2.1245 72.23 3.36341 73.5508 4.96626 74.4992L5.4755 73.6386ZM2.14357 70.0889C1.35804 68.5606 0.957386 66.7746 0.957386 64.7173H-0.0426136C-0.0426136 66.9062 0.384382 68.8537 1.25416 70.546L2.14357 70.0889ZM0.957386 64.7173C0.957386 62.6412 1.35836 60.8515 2.14304 59.3333L1.25468 58.8741C0.384062 60.5586 -0.0426136 62.5113 -0.0426136 64.7173H0.957386ZM2.14357 59.3323C2.92906 57.804 4.03756 56.6249 5.47361 55.7837L4.96815 54.9208C3.36348 55.8609 2.12397 57.1828 1.25416 58.8751L2.14357 59.3323ZM5.47439 55.7832C6.91399 54.9364 8.63583 54.5028 10.6591 54.5028V53.5028C8.49012 53.5028 6.58648 53.9689 4.96737 54.9213L5.47439 55.7832ZM10.6591 54.5028C12.6824 54.5028 14.3992 54.9364 15.8292 55.7826L16.3384 54.922C14.7277 53.9689 12.828 53.5028 10.6591 53.5028V54.5028ZM15.8322 55.7843C17.2771 56.6258 18.3895 57.8047 19.1746 59.3323L20.064 58.8751C19.1938 57.182 17.9492 55.86 16.3354 54.9202L15.8322 55.7843ZM19.1751 59.3333C19.9598 60.8515 20.3608 62.6412 20.3608 64.7173H21.3608C21.3608 62.5113 20.9341 60.5586 20.0635 58.8741L19.1751 59.3333ZM20.3608 64.7173C20.3608 66.7746 19.9601 68.5606 19.1746 70.0889L20.064 70.546C20.9338 68.8537 21.3608 66.9062 21.3608 64.7173H20.3608ZM19.1751 70.0879C18.3901 71.6069 17.277 72.7869 15.8303 73.6379L16.3373 74.4999C17.9493 73.5516 19.1933 72.2307 20.0635 70.547L19.1751 70.0879ZM15.8311 73.6375C14.4008 74.4753 12.6833 74.9048 10.6591 74.9048V75.9048C12.8271 75.9048 14.7261 75.4437 16.3365 74.5003L15.8311 73.6375ZM10.6861 71.4517C11.7402 71.4517 12.6558 71.1506 13.3973 70.5239L12.7518 69.7601C12.2159 70.213 11.5391 70.4517 10.6861 70.4517V71.4517ZM13.4004 70.5213C14.1182 69.9046 14.6441 69.0772 14.9914 68.0642L14.0455 67.7398C13.7451 68.616 13.3084 69.282 12.7487 69.7628L13.4004 70.5213ZM14.99 68.0682C15.3451 67.0606 15.5178 65.9278 15.5178 64.6768H14.5178C14.5178 65.8369 14.3575 66.8542 14.0469 67.7358L14.99 68.0682ZM15.5178 64.6768C15.5178 63.4259 15.3451 62.2931 14.99 61.2855L14.0469 61.6179C14.3575 62.4995 14.5178 63.5168 14.5178 64.6768H15.5178ZM14.9914 61.2895C14.6441 60.2765 14.1182 59.4491 13.4004 58.8324L12.7487 59.5909C13.3084 60.0717 13.7451 60.7377 14.0455 61.6139L14.9914 61.2895ZM13.4004 58.8324C12.659 58.1954 11.7424 57.8885 10.6861 57.8885V58.8885C11.537 58.8885 12.2127 59.1304 12.7487 59.5909L13.4004 58.8324ZM10.6861 57.8885C9.62183 57.8885 8.6944 58.1946 7.93649 58.828L8.57771 59.5953C9.13325 59.1311 9.82514 58.8885 10.6861 58.8885V57.8885ZM7.93389 58.8302C7.2072 59.4458 6.67165 60.2724 6.31464 61.2855L7.2578 61.6179C7.56652 60.7418 8.01155 60.075 8.58031 59.5931L7.93389 58.8302ZM6.31325 61.2895C5.96822 62.2959 5.80043 63.4272 5.80043 64.6768H6.80043C6.80043 63.5155 6.95649 62.4967 7.25919 61.6139L6.31325 61.2895ZM5.80043 64.6768C5.80043 65.9264 5.96822 67.0578 6.31325 68.0642L7.25919 67.7398C6.95649 66.8569 6.80043 65.8382 6.80043 64.6768H5.80043ZM6.31464 68.0682C6.67165 69.0813 7.2072 69.9079 7.93389 70.5235L8.58031 69.7606C8.01155 69.2787 7.56652 68.6119 7.2578 67.7358L6.31464 68.0682ZM7.93962 70.5283C8.69759 71.1513 9.62391 71.4517 10.6861 71.4517V70.4517C9.82306 70.4517 9.13006 70.2123 8.57459 69.7558L7.93962 70.5283ZM38.791 46.6619L39.2439 46.4501L38.9925 45.9126L38.5054 46.2515L38.791 46.6619ZM40.5452 50.4134L40.8647 50.7979L41.1617 50.5513L40.9982 50.2016L40.5452 50.4134ZM38.602 51.4929L38.7529 51.9696L38.7584 51.9678L38.602 51.4929ZM36.0516 51.9382L36.0154 51.4395L36.015 51.4395L36.0516 51.9382ZM32.4621 52.0866L32.4677 52.5866L32.4717 52.5866L32.4621 52.0866ZM28.5488 52.8558L28.7692 53.3046L28.5488 52.8558ZM26.2547 55.1903L26.7027 55.4124L26.7035 55.4109L26.2547 55.1903ZM25.2292 59.3196L24.7314 59.2722L24.6793 59.8196H25.2292V59.3196ZM25.4316 59.3196V59.8196H25.7436L25.8807 59.5394L25.4316 59.3196ZM28.0495 56.3778L27.7888 55.9512L27.7872 55.9521L28.0495 56.3778ZM36.8748 56.4993L36.6223 56.9309L36.6236 56.9316L36.8748 56.4993ZM39.9785 59.8324L40.424 59.6055L40.424 59.6055L39.9785 59.8324ZM39.8435 70.5334L39.4021 70.2986L39.4016 70.2996L39.8435 70.5334ZM36.3485 74.1364L36.5926 74.5727L36.5946 74.5716L36.3485 74.1364ZM25.5261 74.0824L25.2741 74.5143L25.2752 74.5149L25.5261 74.0824ZM22.0175 70.1825L21.5661 70.3976L21.5671 70.3995L22.0175 70.1825ZM23.7043 51.0341L24.0936 51.3479L24.0936 51.3479L23.7043 51.0341ZM32.2732 47.3636L32.278 47.8636L32.282 47.8636L32.2732 47.3636ZM37.2256 47.2287L37.1549 46.7337L37.1539 46.7339L37.2256 47.2287ZM33.2448 70.2635L32.9531 69.8574L32.9504 69.8594L33.2448 70.2635ZM34.7157 68.2933L34.2531 68.1034L34.2514 68.1076L34.7157 68.2933ZM34.7157 62.2344L34.2535 62.4253L34.2561 62.4313L34.7157 62.2344ZM33.2448 60.3452L32.9648 60.7594L32.9648 60.7594L33.2448 60.3452ZM29.156 60.0618L29.3641 60.5164L29.3641 60.5164L29.156 60.0618ZM27.7931 61.1413L27.4012 60.8308L27.4005 60.8318L27.7931 61.1413ZM26.9295 62.8821L26.4504 62.739L26.4492 62.7431L26.9295 62.8821ZM27.7796 69.4268L27.3787 69.7257L27.3817 69.7297L27.7796 69.4268ZM38.338 46.8737L40.0923 50.6252L40.9982 50.2016L39.2439 46.4501L38.338 46.8737ZM40.2257 50.0288C39.6884 50.4751 39.0959 50.804 38.4457 51.018L38.7584 51.9678C39.5296 51.714 40.2325 51.3232 40.8647 50.7979L40.2257 50.0288ZM38.4512 51.0162C37.7876 51.2262 36.978 51.3695 36.0154 51.4395L36.0879 52.4369C37.1044 52.363 37.9951 52.2094 38.7529 51.9696L38.4512 51.0162ZM36.015 51.4395C35.0464 51.5106 33.8595 51.5599 32.4526 51.5867L32.4717 52.5866C33.8896 52.5595 35.0957 52.5097 36.0882 52.4369L36.015 51.4395ZM32.4565 51.5867C30.8102 51.6052 29.4251 51.8685 28.3284 52.407L28.7692 53.3046C29.6876 52.8536 30.9114 52.6041 32.4677 52.5866L32.4565 51.5867ZM28.3284 52.407C27.216 52.9533 26.3738 53.8147 25.806 54.9698L26.7035 55.4109C27.1793 54.4429 27.8664 53.7479 28.7692 53.3046L28.3284 52.407ZM25.8068 54.9683C25.2485 56.0943 24.8968 57.5363 24.7314 59.2722L25.7269 59.367C25.8855 57.7023 26.2174 56.3915 26.7027 55.4124L25.8068 54.9683ZM25.2292 59.8196H25.4316V58.8196H25.2292V59.8196ZM25.8807 59.5394C26.4629 58.3497 27.2733 57.4432 28.3117 56.8036L27.7872 55.9521C26.5766 56.6979 25.6418 57.7526 24.9825 59.0998L25.8807 59.5394ZM28.3102 56.8045C29.3476 56.1705 30.6508 55.8388 32.2462 55.8388V54.8388C30.513 54.8388 29.0184 55.1998 27.7888 55.9512L28.3102 56.8045ZM32.2462 55.8388C33.9343 55.8388 35.3874 56.2084 36.6223 56.9309L37.1273 56.0677C35.7173 55.2428 34.0846 54.8388 32.2462 54.8388V55.8388ZM36.6236 56.9316C37.8671 57.6542 38.8364 58.6917 39.5329 60.0593L40.424 59.6055C39.6452 58.0763 38.5453 56.8917 37.126 56.067L36.6236 56.9316ZM39.5329 60.0593C40.2271 61.4223 40.585 63.077 40.585 65.0412H41.585C41.585 62.9571 41.2052 61.1393 40.424 59.6055L39.5329 60.0593ZM40.585 65.0412C40.585 67.0803 40.1845 68.8273 39.4021 70.2986L40.285 70.7681C41.1579 69.1267 41.585 67.2123 41.585 65.0412H40.585ZM39.4016 70.2996C38.6272 71.7632 37.5298 72.8939 36.1024 73.7011L36.5946 74.5716C38.1899 73.6695 39.4225 72.3983 40.2855 70.7672L39.4016 70.2996ZM36.1044 73.7C34.6815 74.4961 32.9699 74.9048 30.9508 74.9048V75.9048C33.1059 75.9048 34.9928 75.4679 36.5926 74.5727L36.1044 73.7ZM30.9508 74.9048C28.9257 74.9048 27.2075 74.4795 25.7769 73.6498L25.2752 74.5149C26.8853 75.4486 28.7836 75.9048 30.9508 75.9048V74.9048ZM25.778 73.6505C24.3605 72.8236 23.2564 71.6025 22.468 69.9655L21.5671 70.3995C22.4339 72.1992 23.6689 73.5779 25.2741 74.5143L25.778 73.6505ZM22.4689 69.9675C21.6908 68.3342 21.2895 66.2984 21.2895 63.8402H20.2895C20.2895 66.4019 20.707 68.5943 21.5661 70.3976L22.4689 69.9675ZM21.2895 63.8402V62.1399H20.2895V63.8402H21.2895ZM21.2895 62.1399C21.2895 57.1961 22.2544 53.6299 24.0936 51.3479L23.315 50.7203C21.2679 53.2603 20.2895 57.0979 20.2895 62.1399H21.2895ZM24.0936 51.3479C25.9226 49.0786 28.6224 47.8985 32.278 47.8636L32.2684 46.8637C28.3852 46.9007 25.3724 48.1676 23.315 50.7203L24.0936 51.3479ZM32.282 47.8636C33.3039 47.8456 34.2256 47.8412 35.0476 47.8501L35.0585 46.8502C34.2251 46.8411 33.2937 46.8457 32.2644 46.8637L32.282 47.8636ZM35.0476 47.8501C35.8934 47.8593 36.6445 47.8181 37.2973 47.7235L37.1539 46.7339C36.5653 46.8192 35.868 46.859 35.0585 46.8502L35.0476 47.8501ZM37.2963 47.7237C37.9836 47.6255 38.5841 47.4149 39.0765 47.0724L38.5054 46.2515C38.1702 46.4847 37.7271 46.652 37.1549 46.7337L37.2963 47.7237ZM30.9778 71.4517C31.9507 71.4517 32.8129 71.1968 33.5392 70.6676L32.9504 69.8594C32.4172 70.2478 31.7681 70.4517 30.9778 70.4517V71.4517ZM33.5365 70.6696C34.265 70.1463 34.8088 69.4067 35.1799 68.479L34.2514 68.1076C33.9388 68.8892 33.5021 69.463 32.9531 69.8574L33.5365 70.6696ZM35.1782 68.4832C35.5598 67.5538 35.742 66.465 35.742 65.2301H34.742C34.742 66.3703 34.5733 67.3236 34.2531 68.1034L35.1782 68.4832ZM35.742 65.2301C35.742 64.0047 35.5599 62.9349 35.1753 62.0374L34.2561 62.4313C34.5732 63.1711 34.742 64.0985 34.742 65.2301H35.742ZM35.1778 62.0435C34.8047 61.1401 34.2573 60.4262 33.5248 59.9309L32.9648 60.7594C33.5097 61.1278 33.943 61.6733 34.2536 62.4253L35.1778 62.0435ZM33.5248 59.9309C32.7911 59.4349 31.9253 59.1974 30.9508 59.1974V60.1974C31.7575 60.1974 32.421 60.3918 32.9648 60.7594L33.5248 59.9309ZM30.9508 59.1974C30.2233 59.1974 29.5526 59.3304 28.948 59.6071L29.3641 60.5164C29.821 60.3074 30.3468 60.1974 30.9508 60.1974V59.1974ZM28.948 59.6071C28.3423 59.8843 27.826 60.2948 27.4012 60.8308L28.185 61.4519C28.5159 61.0343 28.9082 60.7251 29.3641 60.5164L28.948 59.6071ZM27.4005 60.8318C26.9852 61.3584 26.6716 61.9984 26.4504 62.739L27.4085 63.0252C27.6012 62.3804 27.8633 61.8598 28.1857 61.4509L27.4005 60.8318ZM26.4492 62.7431C26.2355 63.4812 26.1326 64.3122 26.1326 65.2301H27.1326C27.1326 64.3848 27.2276 63.6504 27.4097 63.0211L26.4492 62.7431ZM26.1326 65.2301C26.1326 67.0694 26.529 68.5861 27.3788 69.7257L28.1804 69.128C27.5008 68.2165 27.1326 66.9353 27.1326 65.2301H26.1326ZM27.3817 69.7297C28.2567 70.8793 29.4747 71.4517 30.9778 71.4517V70.4517C29.764 70.4517 28.8498 70.0075 28.1775 69.124L27.3817 69.7297ZM74.4223 70.4794L74.9219 70.4987L74.942 69.9794H74.4223V70.4794ZM74.0175 80.9375V81.4375H74.4985L74.5171 80.9568L74.0175 80.9375ZM68.7412 80.9375H68.2412V81.4375H68.7412V80.9375ZM68.7412 75H69.2412V74.5H68.7412V75ZM66.4337 75H65.9337V75.5H66.4337V75ZM66.4337 70.4794V69.9794H65.9337V70.4794H66.4337ZM41.8605 54.2727V53.7727H41.3605V54.2727H41.8605ZM47.3527 54.2727H47.8527V53.7727H47.3527V54.2727ZM47.3527 70.4389H46.8527V70.9389H47.3527V70.4389ZM53.1957 70.4389V70.9389H53.6957V70.4389H53.1957ZM53.1957 54.2727V53.7727H52.6957V54.2727H53.1957ZM58.6879 54.2727H59.1879V53.7727H58.6879V54.2727ZM58.6879 70.4389H58.1879V70.9389H58.6879V70.4389ZM64.531 70.4389V70.9389H65.031V70.4389H64.531ZM64.531 54.2727V53.7727H64.031V54.2727H64.531ZM70.0232 54.2727H70.5232V53.7727H70.0232V54.2727ZM70.0232 75V75.5H70.5232V75H70.0232ZM41.8605 75H41.3605V75.5H41.8605V75ZM73.9227 70.4601L73.5179 80.9182L74.5171 80.9568L74.9219 70.4987L73.9227 70.4601ZM74.0175 80.4375H68.7412V81.4375H74.0175V80.4375ZM69.2412 80.9375V75H68.2412V80.9375H69.2412ZM68.7412 74.5H66.4337V75.5H68.7412V74.5ZM66.9337 75V70.4794H65.9337V75H66.9337ZM66.4337 70.9794H74.4223V69.9794H66.4337V70.9794ZM41.8605 54.7727H47.3527V53.7727H41.8605V54.7727ZM46.8527 54.2727V70.4389H47.8527V54.2727H46.8527ZM47.3527 70.9389H53.1957V69.9389H47.3527V70.9389ZM53.6957 70.4389V54.2727H52.6957V70.4389H53.6957ZM53.1957 54.7727H58.6879V53.7727H53.1957V54.7727ZM58.1879 54.2727V70.4389H59.1879V54.2727H58.1879ZM58.6879 70.9389H64.531V69.9389H58.6879V70.9389ZM65.031 70.4389V54.2727H64.031V70.4389H65.031ZM64.531 54.7727H70.0232V53.7727H64.531V54.7727ZM69.5232 54.2727V75H70.5232V54.2727H69.5232ZM70.0232 74.5H41.8605V75.5H70.0232V74.5ZM42.3605 75V54.2727H41.3605V75H42.3605ZM78.5343 74.1094L78.2865 74.5437L78.2895 74.5454L78.5343 74.1094ZM74.9988 70.4119L74.5546 70.6415L74.5551 70.6425L74.9988 70.4119ZM74.9988 59.1172L74.5541 58.8886L74.5541 58.8886L74.9988 59.1172ZM78.4938 55.3523L78.2381 54.9226L78.2369 54.9233L78.4938 55.3523ZM87.6295 54.6641L87.4543 55.1324L87.4586 55.134L87.6295 54.6641ZM90.7332 56.6207L90.3814 56.9761L90.3832 56.9779L90.7332 56.6207ZM92.8113 59.9134L92.343 60.0886L92.3434 60.0896L92.8113 59.9134ZM93.5535 66.1072V66.6072H94.0535V66.1072H93.5535ZM76.0513 66.1072H75.5513V66.6072H76.0513V66.1072ZM76.0513 62.5447V62.0447H75.5513V62.5447H76.0513ZM88.1422 62.5447V63.0447H88.6422V62.5447H88.1422ZM87.6025 60.3452L87.1669 60.5906L87.1669 60.5906L87.6025 60.3452ZM86.1046 58.8473L85.8519 59.2788L85.8592 59.2829L86.1046 58.8473ZM81.584 58.9013L81.8395 59.331L81.8413 59.33L81.584 58.9013ZM80.0187 60.5071L80.4535 60.7539L80.4549 60.7514L80.0187 60.5071ZM79.4384 62.7337L78.9384 62.7282V62.7337H79.4384ZM80.0052 68.7791L79.559 69.0049L79.5612 69.0091L80.0052 68.7791ZM85.8887 70.8438L85.7282 70.3702L85.7282 70.3702L85.8887 70.8438ZM87.2516 70.0341L86.9068 69.672L86.9068 69.672L87.2516 70.0341ZM88.1153 68.7116L88.1482 68.2127L87.779 68.1884L87.6478 68.5343L88.1153 68.7116ZM93.432 69.0625L93.9212 69.1659L94.0404 68.6016L93.4649 68.5636L93.432 69.0625ZM91.7722 72.4091L91.3964 72.0793L91.3962 72.0796L91.7722 72.4091ZM88.5606 74.6222L88.7463 75.0864L88.7479 75.0857L88.5606 74.6222ZM84.04 74.9048C81.9758 74.9048 80.2285 74.4871 78.7791 73.6734L78.2895 74.5454C79.9168 75.4589 81.84 75.9048 84.04 75.9048V74.9048ZM78.7821 73.6751C77.3379 72.8511 76.2266 71.6901 75.4424 70.1813L74.5551 70.6425C75.4262 72.3184 76.672 73.6224 78.2865 74.5437L78.7821 73.6751ZM75.443 70.1824C74.659 68.6656 74.2573 66.8538 74.2573 64.7308H73.2573C73.2573 66.98 73.6833 68.9557 74.5546 70.6415L75.443 70.1824ZM74.2573 64.7308C74.2573 62.6641 74.6581 60.8738 75.4435 59.3457L74.5541 58.8886C73.6842 60.5812 73.2573 62.5333 73.2573 64.7308H74.2573ZM75.4435 59.3457C76.23 57.8155 77.3312 56.6312 78.7507 55.7812L78.2369 54.9233C76.6517 55.8726 75.4229 57.1982 74.5541 58.8886L75.4435 59.3457ZM78.7496 55.7819C80.1722 54.9351 81.8532 54.5028 83.8106 54.5028V53.5028C81.7017 53.5028 79.8382 53.9702 78.2381 54.9226L78.7496 55.7819ZM83.8106 54.5028C85.1234 54.5028 86.3365 54.7143 87.4543 55.1324L87.8046 54.1958C86.5654 53.7322 85.2326 53.5028 83.8106 53.5028V54.5028ZM87.4586 55.134C88.5795 55.5416 89.5521 56.1552 90.3814 56.9761L91.0849 56.2654C90.151 55.341 89.0544 54.6502 87.8003 54.1942L87.4586 55.134ZM90.3832 56.9779C91.215 57.7929 91.8704 58.8256 92.343 60.0886L93.2796 59.7381C92.7625 58.3562 92.0325 57.1939 91.0831 56.2636L90.3832 56.9779ZM92.3434 60.0896C92.8123 61.3344 93.0535 62.8105 93.0535 64.5284H94.0535C94.0535 62.7198 93.7999 61.1192 93.2792 59.7371L92.3434 60.0896ZM93.0535 64.5284V66.1072H94.0535V64.5284H93.0535ZM93.5535 65.6072H76.0513V66.6072H93.5535V65.6072ZM76.5513 66.1072V62.5447H75.5513V66.1072H76.5513ZM76.0513 63.0447H88.1422V62.0447H76.0513V63.0447ZM88.6422 62.5447C88.6422 61.6424 88.4454 60.8226 88.0381 60.0997L87.1669 60.5906C87.4793 61.1452 87.6422 61.7918 87.6422 62.5447H88.6422ZM88.0381 60.0997C87.6334 59.3814 87.0683 58.8164 86.35 58.4117L85.8592 59.2829C86.4183 59.5979 86.8518 60.0314 87.1669 60.5906L88.0381 60.0997ZM86.3573 58.4159C85.6403 57.9959 84.8173 57.794 83.905 57.794V58.794C84.6661 58.794 85.3095 58.961 85.8519 59.2787L86.3573 58.4159ZM83.905 57.794C82.9519 57.794 82.0875 58.0161 81.3268 58.4725L81.8413 59.33C82.43 58.9768 83.1129 58.794 83.905 58.794V57.794ZM81.3285 58.4715C80.5874 58.9121 80.0032 59.5113 79.5824 60.2628L80.4549 60.7514C80.7898 60.1534 81.2492 59.6821 81.8395 59.331L81.3285 58.4715ZM79.5838 60.2603C79.1613 61.0048 78.9483 61.8309 78.9384 62.7282L79.9384 62.7392C79.9465 61.9991 80.1204 61.3409 80.4535 60.7539L79.5838 60.2603ZM78.9384 62.7337V66.1207H79.9384V62.7337H78.9384ZM78.9384 66.1207C78.9384 67.2073 79.1387 68.1742 79.559 69.0049L80.4513 68.5534C80.116 67.8907 79.9384 67.0853 79.9384 66.1207H78.9384ZM79.5612 69.0091C79.9903 69.8373 80.6004 70.485 81.3881 70.9395L81.8878 70.0733C81.2722 69.7181 80.7938 69.2144 80.4491 68.5491L79.5612 69.0091ZM81.3881 70.9395C82.179 71.3957 83.1007 71.6136 84.1344 71.6136V70.6136C83.243 70.6136 82.5004 70.4267 81.8878 70.0733L81.3881 70.9395ZM84.1344 71.6136C84.8203 71.6136 85.4601 71.517 86.0492 71.3173L85.7282 70.3702C85.2558 70.5304 84.7261 70.6136 84.1344 70.6136V71.6136ZM86.0492 71.3173C86.6436 71.1158 87.1622 70.8098 87.5965 70.3962L86.9068 69.672C86.5854 69.9781 86.1953 70.2119 85.7282 70.3702L86.0492 71.3173ZM87.5965 70.3962C88.0322 69.9811 88.3602 69.4758 88.5828 68.889L87.6478 68.5343C87.4745 68.9911 87.2267 69.3673 86.9068 69.672L87.5965 70.3962ZM88.0823 69.2106L93.3991 69.5614L93.4649 68.5636L88.1482 68.2127L88.0823 69.2106ZM92.9428 68.9591C92.6901 70.1552 92.1747 71.1922 91.3964 72.0793L92.1481 72.7388C93.043 71.7188 93.6341 70.5247 93.9212 69.1659L92.9428 68.9591ZM91.3962 72.0796C90.6263 72.9582 89.6235 73.6533 88.3732 74.1586L88.7479 75.0857C90.1245 74.5294 91.2628 73.7492 92.1483 72.7386L91.3962 72.0796ZM88.3749 74.1579C87.1408 74.6516 85.699 74.9048 84.04 74.9048V75.9048C85.7995 75.9048 87.3715 75.6363 88.7463 75.0864L88.3749 74.1579ZM94.2649 75H93.7649V75.5H94.2649V75ZM94.2649 54.2727V53.7727H93.7649V54.2727H94.2649ZM112.388 54.2727H112.888V53.7727H112.388V54.2727ZM112.388 75V75.5H112.888V75H112.388ZM106.896 75H106.396V75.5H106.896V75ZM106.896 58.7933H107.396V58.2933H106.896V58.7933ZM99.6896 58.7933V58.2933H99.1896V58.7933H99.6896ZM99.6896 75V75.5H100.19V75H99.6896ZM94.7649 75V54.2727H93.7649V75H94.7649ZM94.2649 54.7727H112.388V53.7727H94.2649V54.7727ZM111.888 54.2727V75H112.888V54.2727H111.888ZM112.388 74.5H106.896V75.5H112.388V74.5ZM107.396 75V58.7933H106.396V75H107.396ZM106.896 58.2933H99.6896V59.2933H106.896V58.2933ZM99.1896 58.7933V75H100.19V58.7933H99.1896ZM99.6896 74.5H94.2649V75.5H99.6896V74.5ZM119.428 67.4162H118.928V69.3095L119.863 67.6631L119.428 67.4162ZM126.89 54.2727V53.7727H126.599L126.456 54.0259L126.89 54.2727ZM132.558 54.2727H133.058V53.7727H132.558V54.2727ZM132.558 75V75.5H133.058V75H132.558ZM127.079 75H126.579V75.5H127.079V75ZM127.079 61.8161H127.579V59.9116L126.644 61.5704L127.079 61.8161ZM119.644 75V75.5H119.936L120.079 75.2456L119.644 75ZM113.936 75H113.436V75.5H113.936V75ZM113.936 54.2727V53.7727H113.436V54.2727H113.936ZM119.428 54.2727H119.928V53.7727H119.428V54.2727ZM119.863 67.6631L127.325 54.5196L126.456 54.0259L118.993 67.1693L119.863 67.6631ZM126.89 54.7727H132.558V53.7727H126.89V54.7727ZM132.058 54.2727V75H133.058V54.2727H132.058ZM132.558 74.5H127.079V75.5H132.558V74.5ZM127.579 75V61.8161H126.579V75H127.579ZM126.644 61.5704L119.208 74.7544L120.079 75.2456L127.515 62.0617L126.644 61.5704ZM119.644 74.5H113.936V75.5H119.644V74.5ZM114.436 75V54.2727H113.436V75H114.436ZM113.936 54.7727H119.428V53.7727H113.936V54.7727ZM118.928 54.2727V67.4162H119.928V54.2727H118.928ZM132.045 58.7933H131.545V59.2933H132.045V58.7933ZM132.045 54.2727V53.7727H131.545V54.2727H132.045ZM150.829 54.2727H151.329V53.7727H150.829V54.2727ZM150.829 58.7933V59.2933H151.329V58.7933H150.829ZM144.149 58.7933V58.2933H143.649V58.7933H144.149ZM144.149 75V75.5H144.649V75H144.149ZM138.671 75H138.171V75.5H138.671V75ZM138.671 58.7933H139.171V58.2933H138.671V58.7933ZM132.545 58.7933V54.2727H131.545V58.7933H132.545ZM132.045 54.7727H150.829V53.7727H132.045V54.7727ZM150.329 54.2727V58.7933H151.329V54.2727H150.329ZM150.829 58.2933H144.149V59.2933H150.829V58.2933ZM143.649 58.7933V75H144.649V58.7933H143.649ZM144.149 74.5H138.671V75.5H144.149V74.5ZM139.171 75V58.7933H138.171V75H139.171ZM138.671 58.2933H132.045V59.2933H138.671V58.2933Z" fill="black" fill-opacity="0.03"/>
</svg>
