<svg xmlns="http://www.w3.org/2000/svg" width="46" height="46" viewBox="0 0 256 256"><path fill="#fff" stroke-miterlimit="10" d="M32 10c12.15 0 22 9.85 22 22s-9.85 22-22 22-22-9.85-22-22 9.85-22 22-22zm7.589 30.968c.404-1.241 2.301-13.615 2.534-16.054.071-.738-.163-1.229-.619-1.449-.553-.265-1.371-.133-2.322.21-1.303.47-17.958 7.541-18.92 7.951-.912.388-1.775.81-1.775 1.423 0 .431.256.673.96.924.732.261 2.577.82 3.668 1.121 1.05.29 2.243.038 2.913-.378.709-.441 8.901-5.921 9.488-6.402.587-.48 1.056.135.576.616-.48.48-6.102 5.937-6.844 6.693-.901.917-.262 1.868.343 2.249.689.435 5.649 3.761 6.396 4.295.747.534 1.504.776 2.198.776.694-.001 1.059-.915 1.404-1.975z" font-family="none" font-size="none" font-weight="none" style="mix-blend-mode:normal" text-anchor="none" transform="scale(4)"/></svg>